<svg width="130" height="40" viewBox="0 0 130 40" fill="none" xmlns="http://www.w3.org/2000/svg">
<path d="M8 0.5H122C126.142 0.5 129.5 3.85786 129.5 8V32C129.5 36.1421 126.142 39.5 122 39.5H8C3.85786 39.5 0.5 36.1421 0.5 32V8C0.5 3.85786 3.85786 0.5 8 0.5Z" fill="white"/>
<path d="M8 0.5H122C126.142 0.5 129.5 3.85786 129.5 8V32C129.5 36.1421 126.142 39.5 122 39.5H8C3.85786 39.5 0.5 36.1421 0.5 32V8C0.5 3.85786 3.85786 0.5 8 0.5Z" stroke="#666666"/>
<path d="M54.375 18.0547H52.2695V17.1523H54.375V18.0547ZM48.332 19.8594C49.3529 19.8594 50.1823 19.8366 50.8203 19.791C51.4583 19.7454 52.1009 19.6589 52.748 19.5312L52.8574 20.4199C52.1921 20.5475 51.5381 20.6318 50.8955 20.6729C50.2529 20.7139 49.3984 20.7344 48.332 20.7344H47.5664V19.8594H48.332ZM52.2012 15.7031H48.5918V20.2422H47.5664V14.8281H52.2012V15.7031ZM51.6953 18.1504H48.2637V17.2891H51.6953V18.1504ZM57.3145 26.1074H56.2617V22.9355H49.0703V22.0469H57.3145V26.1074ZM57.3145 21.4727H56.2891V13.9668H57.3145V21.4727ZM54.9492 21.3906H53.9102V14.2266H54.9492V21.3906ZM64.9707 15.7441C64.9707 16.5827 64.7337 17.3665 64.2598 18.0957C63.7858 18.8249 63.1729 19.4401 62.4209 19.9414C61.6689 20.4427 60.8783 20.7891 60.0488 20.9805L59.5566 20.0781C60.2767 19.9323 60.9831 19.6475 61.6758 19.2236C62.3685 18.7998 62.9336 18.2803 63.3711 17.665C63.8086 17.0498 64.0273 16.4095 64.0273 15.7441V14.8145H64.9707V15.7441ZM65.1484 15.7441C65.1484 16.4004 65.3717 17.0384 65.8184 17.6582C66.265 18.278 66.8369 18.8021 67.5342 19.2305C68.2314 19.6589 68.9355 19.9414 69.6465 20.0781L69.1543 20.9805C68.334 20.7891 67.5479 20.445 66.7959 19.9482C66.0439 19.4515 65.4287 18.8363 64.9502 18.1025C64.4717 17.3688 64.2324 16.5827 64.2324 15.7441V14.8145H65.1484V15.7441ZM70.2207 24.4531H59.0918V23.5645H70.2207V24.4531ZM81.0352 21.4043H72.627V20.5293H81.0352V21.4043ZM82.3203 24.5215H71.1914V23.6328H82.3203V24.5215ZM80.8984 15.9082H73.7207V20.7891H72.627V15.0059H80.8984V15.9082ZM80.6387 18.5742H73.3789V17.7129H80.6387V18.5742Z" fill="#666666"/>
</svg>
