<svg width="129" height="40" viewBox="0 0 129 40" fill="none" xmlns="http://www.w3.org/2000/svg">
<path d="M8 0.5H121C125.142 0.5 128.5 3.85786 128.5 8V32C128.5 36.1421 125.142 39.5 121 39.5H8C3.85787 39.5 0.5 36.1421 0.5 32V8C0.5 3.85786 3.85786 0.5 8 0.5Z" fill="white"/>
<path d="M8 0.5H121C125.142 0.5 128.5 3.85786 128.5 8V32C128.5 36.1421 125.142 39.5 121 39.5H8C3.85787 39.5 0.5 36.1421 0.5 32V8C0.5 3.85786 3.85786 0.5 8 0.5Z" stroke="#666666"/>
<path d="M20.1699 25.1367C19.4408 25.1367 18.8187 24.9385 18.3037 24.542C17.7887 24.1455 17.3945 23.5667 17.1211 22.8057C16.8477 22.0446 16.7109 21.1263 16.7109 20.0508C16.7109 18.9844 16.8477 18.0706 17.1211 17.3096C17.3945 16.5485 17.791 15.9674 18.3105 15.5664C18.8301 15.1654 19.4499 14.9648 20.1699 14.9648C20.89 14.9648 21.5098 15.1654 22.0293 15.5664C22.5488 15.9674 22.9453 16.5485 23.2188 17.3096C23.4922 18.0706 23.6289 18.9844 23.6289 20.0508C23.6289 21.1263 23.4945 22.0446 23.2256 22.8057C22.9567 23.5667 22.5625 24.1455 22.043 24.542C21.5234 24.9385 20.8991 25.1367 20.1699 25.1367ZM20.1699 24.043C20.6439 24.043 21.0495 23.888 21.3867 23.5781C21.724 23.2682 21.9814 22.8148 22.1592 22.2178C22.3369 21.6208 22.4258 20.8984 22.4258 20.0508C22.4258 19.2031 22.3369 18.4785 22.1592 17.877C21.9814 17.2754 21.724 16.8174 21.3867 16.5029C21.0495 16.1885 20.6439 16.0312 20.1699 16.0312C19.696 16.0312 19.2904 16.1885 18.9531 16.5029C18.6159 16.8174 18.3561 17.2754 18.1738 17.877C17.9915 18.4785 17.9004 19.2031 17.9004 20.0508C17.9004 20.8984 17.9893 21.6208 18.167 22.2178C18.3447 22.8148 18.6045 23.2682 18.9463 23.5781C19.2881 23.888 19.696 24.043 20.1699 24.043ZM28.5098 25.1367C27.7806 25.1367 27.1585 24.9385 26.6436 24.542C26.1286 24.1455 25.7344 23.5667 25.4609 22.8057C25.1875 22.0446 25.0508 21.1263 25.0508 20.0508C25.0508 18.9844 25.1875 18.0706 25.4609 17.3096C25.7344 16.5485 26.1309 15.9674 26.6504 15.5664C27.1699 15.1654 27.7897 14.9648 28.5098 14.9648C29.2298 14.9648 29.8496 15.1654 30.3691 15.5664C30.8887 15.9674 31.2852 16.5485 31.5586 17.3096C31.832 18.0706 31.9688 18.9844 31.9688 20.0508C31.9688 21.1263 31.8343 22.0446 31.5654 22.8057C31.2965 23.5667 30.9023 24.1455 30.3828 24.542C29.8633 24.9385 29.2389 25.1367 28.5098 25.1367ZM28.5098 24.043C28.9837 24.043 29.3893 23.888 29.7266 23.5781C30.0638 23.2682 30.3213 22.8148 30.499 22.2178C30.6768 21.6208 30.7656 20.8984 30.7656 20.0508C30.7656 19.2031 30.6768 18.4785 30.499 17.877C30.3213 17.2754 30.0638 16.8174 29.7266 16.5029C29.3893 16.1885 28.9837 16.0312 28.5098 16.0312C28.0358 16.0312 27.6302 16.1885 27.293 16.5029C26.9557 16.8174 26.696 17.2754 26.5137 17.877C26.3314 18.4785 26.2402 19.2031 26.2402 20.0508C26.2402 20.8984 26.3291 21.6208 26.5068 22.2178C26.6846 22.8148 26.9443 23.2682 27.2861 23.5781C27.6279 23.888 28.0358 24.043 28.5098 24.043ZM36.8496 25.1367C36.1204 25.1367 35.4984 24.9385 34.9834 24.542C34.4684 24.1455 34.0742 23.5667 33.8008 22.8057C33.5273 22.0446 33.3906 21.1263 33.3906 20.0508C33.3906 18.9844 33.5273 18.0706 33.8008 17.3096C34.0742 16.5485 34.4707 15.9674 34.9902 15.5664C35.5098 15.1654 36.1296 14.9648 36.8496 14.9648C37.5697 14.9648 38.1895 15.1654 38.709 15.5664C39.2285 15.9674 39.625 16.5485 39.8984 17.3096C40.1719 18.0706 40.3086 18.9844 40.3086 20.0508C40.3086 21.1263 40.1742 22.0446 39.9053 22.8057C39.6364 23.5667 39.2422 24.1455 38.7227 24.542C38.2031 24.9385 37.5788 25.1367 36.8496 25.1367ZM36.8496 24.043C37.3236 24.043 37.7292 23.888 38.0664 23.5781C38.4036 23.2682 38.6611 22.8148 38.8389 22.2178C39.0166 21.6208 39.1055 20.8984 39.1055 20.0508C39.1055 19.2031 39.0166 18.4785 38.8389 17.877C38.6611 17.2754 38.4036 16.8174 38.0664 16.5029C37.7292 16.1885 37.3236 16.0312 36.8496 16.0312C36.3757 16.0312 35.9701 16.1885 35.6328 16.5029C35.2956 16.8174 35.0358 17.2754 34.8535 17.877C34.6712 18.4785 34.5801 19.2031 34.5801 20.0508C34.5801 20.8984 34.6689 21.6208 34.8467 22.2178C35.0244 22.8148 35.2842 23.2682 35.626 23.5781C35.9678 23.888 36.3757 24.043 36.8496 24.043ZM45.1895 25.1367C44.4603 25.1367 43.8382 24.9385 43.3232 24.542C42.8083 24.1455 42.4141 23.5667 42.1406 22.8057C41.8672 22.0446 41.7305 21.1263 41.7305 20.0508C41.7305 18.9844 41.8672 18.0706 42.1406 17.3096C42.4141 16.5485 42.8105 15.9674 43.3301 15.5664C43.8496 15.1654 44.4694 14.9648 45.1895 14.9648C45.9095 14.9648 46.5293 15.1654 47.0488 15.5664C47.5684 15.9674 47.9648 16.5485 48.2383 17.3096C48.5117 18.0706 48.6484 18.9844 48.6484 20.0508C48.6484 21.1263 48.514 22.0446 48.2451 22.8057C47.9762 23.5667 47.582 24.1455 47.0625 24.542C46.543 24.9385 45.9186 25.1367 45.1895 25.1367ZM45.1895 24.043C45.6634 24.043 46.069 23.888 46.4062 23.5781C46.7435 23.2682 47.001 22.8148 47.1787 22.2178C47.3564 21.6208 47.4453 20.8984 47.4453 20.0508C47.4453 19.2031 47.3564 18.4785 47.1787 17.877C47.001 17.2754 46.7435 16.8174 46.4062 16.5029C46.069 16.1885 45.6634 16.0312 45.1895 16.0312C44.7155 16.0312 44.3099 16.1885 43.9727 16.5029C43.6354 16.8174 43.3757 17.2754 43.1934 17.877C43.0111 18.4785 42.9199 19.2031 42.9199 20.0508C42.9199 20.8984 43.0088 21.6208 43.1865 22.2178C43.3643 22.8148 43.624 23.2682 43.9658 23.5781C44.3076 23.888 44.7155 24.043 45.1895 24.043ZM50.7812 25.082C50.6263 25.082 50.4805 25.041 50.3438 24.959C50.207 24.877 50.0999 24.7676 50.0225 24.6309C49.945 24.4941 49.9062 24.3483 49.9062 24.1934C49.9062 24.0384 49.945 23.8926 50.0225 23.7559C50.0999 23.6191 50.207 23.512 50.3438 23.4346C50.4805 23.3571 50.6263 23.3184 50.7812 23.3184C50.9362 23.3184 51.082 23.3571 51.2188 23.4346C51.3555 23.512 51.4626 23.6191 51.54 23.7559C51.6175 23.8926 51.6562 24.0384 51.6562 24.1934C51.6562 24.3483 51.6175 24.4941 51.54 24.6309C51.4626 24.7676 51.3555 24.877 51.2188 24.959C51.082 25.041 50.9362 25.082 50.7812 25.082ZM55.7988 25H54.5547V16.3867H54.5L52.0938 17.9863V16.7422L54.5547 15.1016H55.7988V25ZM58.4238 24.0977L61.8008 20.543C62.2474 20.069 62.5892 19.6885 62.8262 19.4014C63.0632 19.1143 63.2409 18.834 63.3594 18.5605C63.4779 18.2871 63.5371 18.0046 63.5371 17.7129C63.5371 17.3848 63.4505 17.0931 63.2773 16.8379C63.1042 16.5827 62.8695 16.3844 62.5732 16.2432C62.277 16.1019 61.9421 16.0312 61.5684 16.0312C61.1855 16.0312 60.8483 16.1087 60.5566 16.2637C60.265 16.4186 60.0394 16.6374 59.8799 16.9199C59.7204 17.2025 59.6406 17.526 59.6406 17.8906H58.4785C58.4785 17.3164 58.613 16.8083 58.8818 16.3662C59.1507 15.9242 59.5244 15.5801 60.0029 15.334C60.4814 15.0879 61.0169 14.9648 61.6094 14.9648C62.2018 14.9648 62.7305 15.0856 63.1953 15.3271C63.6602 15.5687 64.0247 15.8991 64.2891 16.3184C64.5534 16.7376 64.6855 17.2025 64.6855 17.7129C64.6855 18.0866 64.6172 18.4466 64.4805 18.793C64.3438 19.1393 64.1159 19.5199 63.7969 19.9346C63.4779 20.3493 63.0176 20.8665 62.416 21.4863L60.1465 23.8242V23.9062H64.8633V25H58.4375L58.4238 24.0977ZM67.502 25.082C67.347 25.082 67.2012 25.041 67.0645 24.959C66.9277 24.877 66.8206 24.7676 66.7432 24.6309C66.6657 24.4941 66.627 24.3483 66.627 24.1934C66.627 24.0384 66.6657 23.8926 66.7432 23.7559C66.8206 23.6191 66.9277 23.512 67.0645 23.4346C67.2012 23.3571 67.347 23.3184 67.502 23.3184C67.6569 23.3184 67.8027 23.3571 67.9395 23.4346C68.0762 23.512 68.1833 23.6191 68.2607 23.7559C68.3382 23.8926 68.377 24.0384 68.377 24.1934C68.377 24.3483 68.3382 24.4941 68.2607 24.6309C68.1833 24.7676 68.0762 24.877 67.9395 24.959C67.8027 25.041 67.6569 25.082 67.502 25.082ZM72.5195 25H71.2754V16.3867H71.2207L68.8145 17.9863V16.7422L71.2754 15.1016H72.5195V25ZM78.5762 25.1367C77.929 25.1367 77.348 25.0273 76.833 24.8086C76.318 24.5898 75.9124 24.2822 75.6162 23.8857C75.32 23.4893 75.1582 23.0312 75.1309 22.5117H76.375C76.4023 22.8125 76.514 23.0791 76.71 23.3115C76.9059 23.5439 77.1657 23.724 77.4893 23.8516C77.8128 23.9792 78.1706 24.043 78.5625 24.043C78.9909 24.043 79.3783 23.9678 79.7246 23.8174C80.071 23.667 80.3398 23.4619 80.5312 23.2021C80.7227 22.9424 80.8184 22.6439 80.8184 22.3066C80.8184 21.9421 80.7249 21.6208 80.5381 21.3428C80.3512 21.0648 80.0778 20.8483 79.7178 20.6934C79.3577 20.5384 78.9225 20.4609 78.4121 20.4609H77.6055V19.3809H78.4121C78.8132 19.3809 79.1686 19.3102 79.4785 19.1689C79.7884 19.0277 80.0277 18.8294 80.1963 18.5742C80.3649 18.319 80.4492 18.0228 80.4492 17.6855C80.4492 17.3574 80.374 17.068 80.2236 16.8174C80.0732 16.5667 79.859 16.373 79.5811 16.2363C79.3031 16.0996 78.9772 16.0312 78.6035 16.0312C78.248 16.0312 77.9154 16.0951 77.6055 16.2227C77.2956 16.3503 77.0426 16.5303 76.8467 16.7627C76.6507 16.9951 76.5436 17.2708 76.5254 17.5898H75.3359C75.3633 17.0794 75.5251 16.6237 75.8213 16.2227C76.1175 15.8216 76.5117 15.5117 77.0039 15.293C77.4961 15.0742 78.0339 14.9648 78.6172 14.9648C79.2279 14.9648 79.7633 15.0833 80.2236 15.3203C80.6839 15.5573 81.0371 15.8786 81.2832 16.2842C81.5293 16.6898 81.6478 17.1341 81.6387 17.6172C81.6478 17.9818 81.584 18.3167 81.4473 18.6221C81.3105 18.9274 81.1146 19.1849 80.8594 19.3945C80.6042 19.6042 80.3034 19.7591 79.957 19.8594V19.9277C80.3854 19.9915 80.7546 20.1328 81.0645 20.3516C81.3743 20.5703 81.6136 20.846 81.7822 21.1787C81.9508 21.5114 82.0306 21.8874 82.0215 22.3066C82.0306 22.8353 81.8848 23.3161 81.584 23.749C81.2832 24.182 80.8685 24.5215 80.3398 24.7676C79.8112 25.0137 79.2233 25.1367 78.5762 25.1367Z" fill="#888888"/>
<path d="M101 12V15" stroke="#ACACAC" stroke-width="1.4" stroke-linecap="round" stroke-linejoin="round"/>
<path d="M108 12V15" stroke="#ACACAC" stroke-width="1.4" stroke-linecap="round" stroke-linejoin="round"/>
<path d="M110.333 14H98.6667C97.7462 14 97 14.6964 97 15.5556V26.4444C97 27.3036 97.7462 28 98.6667 28H110.333C111.254 28 112 27.3036 112 26.4444V15.5556C112 14.6964 111.254 14 110.333 14Z" stroke="#ACACAC" stroke-width="1.4" stroke-linecap="round" stroke-linejoin="round"/>
<path d="M97 19H112" stroke="#ACACAC" stroke-width="1.4" stroke-linecap="round" stroke-linejoin="round"/>
</svg>
