<svg width="133" height="40" viewBox="0 0 133 40" fill="none" xmlns="http://www.w3.org/2000/svg">
<path d="M8 0.5H125C129.142 0.5 132.5 3.85786 132.5 8V32C132.5 36.1421 129.142 39.5 125 39.5H8C3.85786 39.5 0.5 36.1421 0.5 32V8C0.5 3.85786 3.85786 0.5 8 0.5Z" fill="white"/>
<path d="M8 0.5H125C129.142 0.5 132.5 3.85786 132.5 8V32C132.5 36.1421 129.142 39.5 125 39.5H8C3.85786 39.5 0.5 36.1421 0.5 32V8C0.5 3.85786 3.85786 0.5 8 0.5Z" stroke="#666666"/>
<path d="M20.4707 25.1367C19.6777 25.1367 18.9964 24.9385 18.4268 24.542C17.8617 24.1455 17.4264 23.5667 17.1211 22.8057C16.8203 22.04 16.6699 21.1217 16.6699 20.0508C16.6699 18.9798 16.8203 18.0638 17.1211 17.3027C17.4264 16.5417 17.8639 15.9629 18.4336 15.5664C19.0033 15.1654 19.6823 14.9648 20.4707 14.9648C21.2591 14.9648 21.9382 15.1654 22.5078 15.5664C23.082 15.9629 23.5195 16.5439 23.8203 17.3096C24.1211 18.0706 24.2715 18.9844 24.2715 20.0508C24.2715 21.1263 24.1211 22.0446 23.8203 22.8057C23.5241 23.5667 23.0889 24.1455 22.5146 24.542C21.945 24.9385 21.2637 25.1367 20.4707 25.1367ZM20.4707 23.6396C20.8854 23.6396 21.2432 23.5052 21.5439 23.2363C21.8447 22.9629 22.0749 22.5596 22.2344 22.0264C22.3984 21.4886 22.4782 20.8301 22.4736 20.0508C22.4736 19.276 22.3916 18.6198 22.2275 18.082C22.068 17.5397 21.8379 17.1318 21.5371 16.8584C21.2409 16.5804 20.8854 16.4414 20.4707 16.4414C20.056 16.4414 19.6982 16.5804 19.3975 16.8584C19.1012 17.1318 18.8711 17.5397 18.707 18.082C18.543 18.6198 18.4609 19.276 18.4609 20.0508C18.4609 20.8301 18.5407 21.4886 18.7002 22.0264C18.8643 22.5596 19.0967 22.9629 19.3975 23.2363C19.6982 23.5052 20.056 23.6396 20.4707 23.6396ZM29.4121 25.1367C28.6191 25.1367 27.9378 24.9385 27.3682 24.542C26.8031 24.1455 26.3678 23.5667 26.0625 22.8057C25.7617 22.04 25.6113 21.1217 25.6113 20.0508C25.6113 18.9798 25.7617 18.0638 26.0625 17.3027C26.3678 16.5417 26.8053 15.9629 27.375 15.5664C27.9447 15.1654 28.6237 14.9648 29.4121 14.9648C30.2005 14.9648 30.8796 15.1654 31.4492 15.5664C32.0234 15.9629 32.4609 16.5439 32.7617 17.3096C33.0625 18.0706 33.2129 18.9844 33.2129 20.0508C33.2129 21.1263 33.0625 22.0446 32.7617 22.8057C32.4655 23.5667 32.0303 24.1455 31.4561 24.542C30.8864 24.9385 30.2051 25.1367 29.4121 25.1367ZM29.4121 23.6396C29.8268 23.6396 30.1846 23.5052 30.4854 23.2363C30.7861 22.9629 31.0163 22.5596 31.1758 22.0264C31.3398 21.4886 31.4196 20.8301 31.415 20.0508C31.415 19.276 31.333 18.6198 31.1689 18.082C31.0094 17.5397 30.7793 17.1318 30.4785 16.8584C30.1823 16.5804 29.8268 16.4414 29.4121 16.4414C28.9974 16.4414 28.6396 16.5804 28.3389 16.8584C28.0426 17.1318 27.8125 17.5397 27.6484 18.082C27.4844 18.6198 27.4023 19.276 27.4023 20.0508C27.4023 20.8301 27.4821 21.4886 27.6416 22.0264C27.8057 22.5596 28.0381 22.9629 28.3389 23.2363C28.6396 23.5052 28.9974 23.6396 29.4121 23.6396ZM38.3535 25.1367C37.5605 25.1367 36.8792 24.9385 36.3096 24.542C35.7445 24.1455 35.3092 23.5667 35.0039 22.8057C34.7031 22.04 34.5527 21.1217 34.5527 20.0508C34.5527 18.9798 34.7031 18.0638 35.0039 17.3027C35.3092 16.5417 35.7467 15.9629 36.3164 15.5664C36.8861 15.1654 37.5651 14.9648 38.3535 14.9648C39.1419 14.9648 39.821 15.1654 40.3906 15.5664C40.9648 15.9629 41.4023 16.5439 41.7031 17.3096C42.0039 18.0706 42.1543 18.9844 42.1543 20.0508C42.1543 21.1263 42.0039 22.0446 41.7031 22.8057C41.4069 23.5667 40.9717 24.1455 40.3975 24.542C39.8278 24.9385 39.1465 25.1367 38.3535 25.1367ZM38.3535 23.6396C38.7682 23.6396 39.126 23.5052 39.4268 23.2363C39.7275 22.9629 39.9577 22.5596 40.1172 22.0264C40.2812 21.4886 40.361 20.8301 40.3564 20.0508C40.3564 19.276 40.2744 18.6198 40.1104 18.082C39.9508 17.5397 39.7207 17.1318 39.4199 16.8584C39.1237 16.5804 38.7682 16.4414 38.3535 16.4414C37.9388 16.4414 37.5811 16.5804 37.2803 16.8584C36.984 17.1318 36.7539 17.5397 36.5898 18.082C36.4258 18.6198 36.3438 19.276 36.3438 20.0508C36.3438 20.8301 36.4235 21.4886 36.583 22.0264C36.7471 22.5596 36.9795 22.9629 37.2803 23.2363C37.5811 23.5052 37.9388 23.6396 38.3535 23.6396ZM47.2949 25.1367C46.502 25.1367 45.8206 24.9385 45.251 24.542C44.6859 24.1455 44.2507 23.5667 43.9453 22.8057C43.6445 22.04 43.4941 21.1217 43.4941 20.0508C43.4941 18.9798 43.6445 18.0638 43.9453 17.3027C44.2507 16.5417 44.6882 15.9629 45.2578 15.5664C45.8275 15.1654 46.5065 14.9648 47.2949 14.9648C48.0833 14.9648 48.7624 15.1654 49.332 15.5664C49.9062 15.9629 50.3438 16.5439 50.6445 17.3096C50.9453 18.0706 51.0957 18.9844 51.0957 20.0508C51.0957 21.1263 50.9453 22.0446 50.6445 22.8057C50.3483 23.5667 49.9131 24.1455 49.3389 24.542C48.7692 24.9385 48.0879 25.1367 47.2949 25.1367ZM47.2949 23.6396C47.7096 23.6396 48.0674 23.5052 48.3682 23.2363C48.6689 22.9629 48.8991 22.5596 49.0586 22.0264C49.2227 21.4886 49.3024 20.8301 49.2979 20.0508C49.2979 19.276 49.2158 18.6198 49.0518 18.082C48.8923 17.5397 48.6621 17.1318 48.3613 16.8584C48.0651 16.5804 47.7096 16.4414 47.2949 16.4414C46.8802 16.4414 46.5225 16.5804 46.2217 16.8584C45.9255 17.1318 45.6953 17.5397 45.5312 18.082C45.3672 18.6198 45.2852 19.276 45.2852 20.0508C45.2852 20.8301 45.3649 21.4886 45.5244 22.0264C45.6885 22.5596 45.9209 22.9629 46.2217 23.2363C46.5225 23.5052 46.8802 23.6396 47.2949 23.6396ZM53.2832 25.1094C53.0918 25.1094 52.9141 25.0615 52.75 24.9658C52.5859 24.8656 52.4561 24.7357 52.3604 24.5762C52.2692 24.4121 52.2236 24.2344 52.2236 24.043C52.2236 23.8561 52.2692 23.6829 52.3604 23.5234C52.4561 23.3594 52.5859 23.2318 52.75 23.1406C52.9141 23.0449 53.0918 22.9971 53.2832 22.9971C53.4655 22.9971 53.6387 23.0449 53.8027 23.1406C53.9668 23.2318 54.0967 23.3594 54.1924 23.5234C54.2881 23.6829 54.3359 23.8561 54.3359 24.043C54.3359 24.2344 54.2881 24.4121 54.1924 24.5762C54.0967 24.7357 53.9668 24.8656 53.8027 24.9658C53.6387 25.0615 53.4655 25.1094 53.2832 25.1094ZM58.793 25H57.002V16.8379H56.9473L54.6299 18.3213V16.6875L57.084 15.1016H58.793V25ZM61.1992 23.708L64.6924 20.3447C65.0752 19.9619 65.3714 19.6497 65.5811 19.4082C65.7907 19.1621 65.9502 18.9183 66.0596 18.6768C66.1689 18.4352 66.2236 18.18 66.2236 17.9111C66.2236 17.6149 66.1484 17.3529 65.998 17.125C65.8477 16.8971 65.6449 16.7217 65.3896 16.5986C65.1344 16.471 64.8428 16.4072 64.5146 16.4072C64.1865 16.4072 63.8949 16.4756 63.6396 16.6123C63.3844 16.7445 63.1885 16.9359 63.0518 17.1865C62.915 17.4372 62.8467 17.7266 62.8467 18.0547H61.1582C61.1582 17.4395 61.3018 16.8994 61.5889 16.4346C61.876 15.9652 62.2747 15.6029 62.7852 15.3477C63.3001 15.0924 63.8857 14.9648 64.542 14.9648C65.2074 14.9648 65.7952 15.0879 66.3057 15.334C66.8161 15.5801 67.2126 15.9196 67.4951 16.3525C67.7822 16.7855 67.9258 17.2777 67.9258 17.8291C67.9258 18.2119 67.8529 18.5811 67.707 18.9365C67.5612 19.292 67.3105 19.6839 66.9551 20.1123C66.6042 20.5407 66.1006 21.0648 65.4443 21.6846L63.6807 23.4346V23.5098H68.0762V25H61.2061L61.1992 23.708ZM70.7285 25.1094C70.5371 25.1094 70.3594 25.0615 70.1953 24.9658C70.0312 24.8656 69.9014 24.7357 69.8057 24.5762C69.7145 24.4121 69.6689 24.2344 69.6689 24.043C69.6689 23.8561 69.7145 23.6829 69.8057 23.5234C69.9014 23.3594 70.0312 23.2318 70.1953 23.1406C70.3594 23.0449 70.5371 22.9971 70.7285 22.9971C70.9108 22.9971 71.084 23.0449 71.248 23.1406C71.4121 23.2318 71.542 23.3594 71.6377 23.5234C71.7334 23.6829 71.7812 23.8561 71.7812 24.043C71.7812 24.2344 71.7334 24.4121 71.6377 24.5762C71.542 24.7357 71.4121 24.8656 71.248 24.9658C71.084 25.0615 70.9108 25.1094 70.7285 25.1094ZM76.2383 25H74.4473V16.8379H74.3926L72.0752 18.3213V16.6875L74.5293 15.1016H76.2383V25ZM82.2402 25.1367C81.543 25.1367 80.9186 25.0182 80.3672 24.7812C79.8158 24.5443 79.3828 24.2116 79.0684 23.7832C78.7585 23.3503 78.5944 22.8604 78.5762 22.3135H80.374C80.3923 22.5687 80.4834 22.7965 80.6475 22.9971C80.8115 23.1976 81.0326 23.3548 81.3105 23.4688C81.5885 23.5781 81.8962 23.6328 82.2334 23.6328C82.5934 23.6328 82.917 23.5713 83.2041 23.4482C83.4958 23.3206 83.7214 23.1475 83.8809 22.9287C84.0404 22.7054 84.1178 22.4502 84.1133 22.1631C84.1178 21.8577 84.0381 21.5911 83.874 21.3633C83.7145 21.1309 83.4775 20.9508 83.1631 20.8232C82.8532 20.6911 82.4863 20.625 82.0625 20.625H81.1807V19.251H82.0625C82.4134 19.251 82.7233 19.1917 82.9922 19.0732C83.2656 18.9502 83.4753 18.7793 83.6211 18.5605C83.7715 18.3418 83.8467 18.0911 83.8467 17.8086C83.8467 17.5306 83.7806 17.2868 83.6484 17.0771C83.5208 16.863 83.3363 16.6989 83.0947 16.585C82.8577 16.4665 82.5798 16.4072 82.2607 16.4072C81.9508 16.4072 81.6615 16.4642 81.3926 16.5781C81.1283 16.6875 80.9141 16.8447 80.75 17.0498C80.5905 17.2503 80.5039 17.4896 80.4902 17.7676H78.7744C78.7972 17.2207 78.9613 16.7354 79.2666 16.3115C79.5765 15.8877 79.9935 15.5573 80.5176 15.3203C81.0417 15.0833 81.625 14.9648 82.2676 14.9648C82.9238 14.9648 83.5003 15.0856 83.9971 15.3271C84.4984 15.5687 84.8857 15.8991 85.1592 16.3184C85.4372 16.7331 85.5716 17.1956 85.5625 17.7061C85.5716 18.0661 85.501 18.3965 85.3506 18.6973C85.2002 18.9935 84.986 19.2396 84.708 19.4355C84.43 19.6315 84.111 19.7682 83.751 19.8457V19.9209C84.2158 19.9801 84.6123 20.1169 84.9404 20.3311C85.2686 20.5407 85.5192 20.8096 85.6924 21.1377C85.8656 21.4613 85.9476 21.8327 85.9385 22.252C85.9476 22.7943 85.7904 23.2865 85.4668 23.7285C85.1478 24.166 84.7057 24.5101 84.1406 24.7607C83.5801 25.0114 82.9466 25.1367 82.2402 25.1367Z" fill="#222222"/>
<path d="M105 12V15" stroke="#ACACAC" stroke-width="1.4" stroke-linecap="round" stroke-linejoin="round"/>
<path d="M112 12V15" stroke="#ACACAC" stroke-width="1.4" stroke-linecap="round" stroke-linejoin="round"/>
<path d="M114.333 14H102.667C101.746 14 101 14.6964 101 15.5556V26.4444C101 27.3036 101.746 28 102.667 28H114.333C115.254 28 116 27.3036 116 26.4444V15.5556C116 14.6964 115.254 14 114.333 14Z" stroke="#ACACAC" stroke-width="1.4" stroke-linecap="round" stroke-linejoin="round"/>
<path d="M101 19H116" stroke="#ACACAC" stroke-width="1.4" stroke-linecap="round" stroke-linejoin="round"/>
</svg>
