<svg width="127" height="40" viewBox="0 0 127 40" fill="none" xmlns="http://www.w3.org/2000/svg">
<rect x="0.5" y="0.5" width="126" height="39" rx="7.5" fill="white"/>
<rect x="0.5" y="0.5" width="126" height="39" rx="7.5" stroke="#D81921"/>
<path d="M52.875 18.0547H50.7695V17.1523H52.875V18.0547ZM46.832 19.8594C47.8529 19.8594 48.6823 19.8366 49.3203 19.791C49.9583 19.7454 50.6009 19.6589 51.248 19.5312L51.3574 20.4199C50.6921 20.5475 50.0381 20.6318 49.3955 20.6729C48.7529 20.7139 47.8984 20.7344 46.832 20.7344H46.0664V19.8594H46.832ZM50.7012 15.7031H47.0918V20.2422H46.0664V14.8281H50.7012V15.7031ZM50.1953 18.1504H46.7637V17.2891H50.1953V18.1504ZM55.8145 26.1074H54.7617V22.9355H47.5703V22.0469H55.8145V26.1074ZM55.8145 21.4727H54.7891V13.9668H55.8145V21.4727ZM53.4492 21.3906H52.4102V14.2266H53.4492V21.3906ZM63.4707 15.7441C63.4707 16.5827 63.2337 17.3665 62.7598 18.0957C62.2858 18.8249 61.6729 19.4401 60.9209 19.9414C60.1689 20.4427 59.3783 20.7891 58.5488 20.9805L58.0566 20.0781C58.7767 19.9323 59.4831 19.6475 60.1758 19.2236C60.8685 18.7998 61.4336 18.2803 61.8711 17.665C62.3086 17.0498 62.5273 16.4095 62.5273 15.7441V14.8145H63.4707V15.7441ZM63.6484 15.7441C63.6484 16.4004 63.8717 17.0384 64.3184 17.6582C64.765 18.278 65.3369 18.8021 66.0342 19.2305C66.7314 19.6589 67.4355 19.9414 68.1465 20.0781L67.6543 20.9805C66.834 20.7891 66.0479 20.445 65.2959 19.9482C64.5439 19.4515 63.9287 18.8363 63.4502 18.1025C62.9717 17.3688 62.7324 16.5827 62.7324 15.7441V14.8145H63.6484V15.7441ZM68.7207 24.4531H57.5918V23.5645H68.7207V24.4531ZM79.5352 21.4043H71.127V20.5293H79.5352V21.4043ZM80.8203 24.5215H69.6914V23.6328H80.8203V24.5215ZM79.3984 15.9082H72.2207V20.7891H71.127V15.0059H79.3984V15.9082ZM79.1387 18.5742H71.8789V17.7129H79.1387V18.5742Z" fill="#D81921"/>
</svg>
