<svg width="188" height="26" viewBox="0 0 188 26" fill="none" xmlns="http://www.w3.org/2000/svg">
<g clip-path="url(#clip0_392_10863)">
<path d="M149.682 6.28854V5.38144H154.069V2.6092H141.538V5.38144H145.915V6.28854C145.915 10.5488 143.1 14.0957 140.513 16.2972L140.431 16.3685L142.014 18.5598L142.117 18.5088C144.363 17.3164 146.95 14.1161 147.809 12.1796C148.668 14.1059 151.244 17.3164 153.5 18.5088L153.593 18.5598L155.176 16.3685L155.094 16.2972C152.507 14.0957 149.671 10.5488 149.682 6.28854ZM158.063 25.1948H160.174C160.671 25.1948 161.075 25.0216 161.344 24.726C161.623 24.4304 161.758 24.0126 161.758 23.5437V1.09058H158.063V25.1948ZM168.546 11.9044L168.649 11.8738C171.454 11.2011 174.734 9.63154 176.472 7.59312C178.211 9.63154 181.481 11.2011 184.295 11.8738L184.399 11.9044L185.278 9.57039L185.164 9.52962C183.726 9.03021 182.081 8.18427 180.798 7.19563C179.515 6.21719 178.614 5.11645 178.614 4.15839V4.03609H184.792V1.36576H168.163V4.05647H174.33V4.17878C174.33 5.10626 173.44 6.21719 172.157 7.19563C170.874 8.17407 169.229 9.0404 167.79 9.53981L167.677 9.58058L167.718 9.70289L168.556 11.9146L168.546 11.9044ZM164.945 14.1466V16.8679H174.62V25.1847H176.845C177.31 25.1847 177.693 25.0216 177.942 24.7362C178.2 24.4406 178.325 24.033 178.325 23.5437V16.8781H187.989V14.1568H164.945V14.1466Z" fill="#716353"/>
<path d="M106.438 10.9667C106.841 10.1819 107.09 8.93844 107.142 7.59308V1.36572H89.7572V4.13797H103.334V7.59308C103.334 8.50018 103.22 10.2736 103.044 10.9667H86.0112V13.7389H111.157V10.9667H106.438ZM90.3677 22.9627C90.3677 23.6354 90.5746 24.2775 91.092 24.7362C91.6094 25.1948 92.4062 25.47 93.5548 25.47H104.058C105.207 25.47 106.003 25.1948 106.521 24.7362C107.038 24.2775 107.245 23.6354 107.245 22.9627V16.1442H90.3573V22.9627H90.3677ZM94.2171 18.8451H103.375V22.2595C103.375 22.5245 103.147 22.7385 102.858 22.7385H94.7345C94.4551 22.7385 94.2274 22.5245 94.2171 22.2595V18.8451Z" fill="#716353"/>
<path d="M120.667 9.25441C121.991 10.2227 123.802 10.824 125.81 10.824C127.817 10.824 129.638 10.2227 130.952 9.25441C132.267 8.27597 133.094 6.92042 133.094 5.412C133.094 3.90357 132.267 2.54802 130.952 1.57977C129.638 0.601333 127.817 0 125.81 0C123.802 0 121.991 0.601333 120.667 1.57977C119.352 2.55821 118.525 3.91376 118.525 5.412C118.525 6.92042 119.352 8.27597 120.667 9.25441ZM123.274 3.44492C123.916 2.94551 124.816 2.61936 125.81 2.61936C126.803 2.61936 127.703 2.93532 128.355 3.44492C129.007 3.95453 129.39 4.64759 129.39 5.412C129.39 6.1764 128.997 6.86946 128.355 7.37907C127.714 7.88867 126.813 8.20463 125.81 8.20463C124.806 8.20463 123.916 7.88867 123.274 7.37907C122.633 6.86946 122.24 6.1764 122.24 5.412C122.24 4.64759 122.633 3.95453 123.274 3.44492ZM138.237 14.4626V11.6903H113.392V14.4626H120.015V17.7954C119.177 18.6311 118.669 19.6707 118.669 20.8122C118.669 22.2595 119.477 23.5539 120.77 24.4916C122.064 25.4292 123.843 26 125.81 26C127.776 26 129.555 25.4191 130.849 24.4916C132.142 23.5539 132.95 22.2493 132.95 20.8122C132.95 19.6809 132.453 18.6413 131.604 17.7954V14.4626H138.227H138.237ZM123.792 14.4626H127.827V15.8895C127.186 15.757 126.513 15.6856 125.81 15.6856C125.106 15.6856 124.433 15.757 123.792 15.8895V14.4626ZM128.241 22.6876C127.62 23.187 126.762 23.5029 125.81 23.5029C124.858 23.5029 123.999 23.1972 123.378 22.6876C122.757 22.1882 122.374 21.5053 122.374 20.7409C122.374 19.9765 122.747 19.3038 123.378 18.8044C123.999 18.305 124.858 17.9992 125.81 17.9992C126.762 17.9992 127.631 18.305 128.241 18.8044C128.862 19.3038 129.245 19.9867 129.245 20.7409C129.245 21.4951 128.862 22.178 128.241 22.6876Z" fill="#716353"/>
<path d="M75.0947 5.67697H77.1539C77.2781 5.67697 77.3919 5.56486 77.3919 5.44256V1.60014C77.3919 1.46764 77.2781 1.36572 77.1539 1.36572H74.2565C70.9141 1.36572 69.1446 2.41551 68.1306 4.65777L61.8391 19.8338C61.4562 20.7409 60.9077 21.1689 59.8212 21.1689V1.60014C59.8212 1.46764 59.7177 1.36572 59.5832 1.36572H54.9577C54.8232 1.36572 54.7197 1.47784 54.7197 1.60014V25.0521C54.7197 25.2865 54.906 25.47 55.144 25.47H60.3283C63.6706 25.47 65.2021 24.4202 66.2162 22.178L72.4249 7.19559C72.9216 6.12542 73.646 5.66678 75.0947 5.66678" fill="#D20A11"/>
<path d="M18.6055 13.423C20.4577 12.6687 21.9996 10.9565 21.9996 8.13327C21.9996 3.92393 18.3364 1.36572 13.9075 1.36572H0.238001C0.103479 1.36572 0 1.47784 0 1.60014V5.43236C0 5.56486 0.103479 5.66678 0.238001 5.66678H12.9555C15.0044 5.66678 16.391 6.90002 16.391 8.41864C16.391 9.93726 15.0044 11.1705 12.9555 11.1705H5.40159V8.32691C5.40159 8.19442 5.28776 8.0925 5.15324 8.0925H0.238001C0.103479 8.0925 0 8.19442 0 8.32691V25.2254C0 25.3579 0.103479 25.4598 0.238001 25.4598H13.7006C18.74 25.4598 22.341 23.1462 22.341 18.4375C22.341 16.1137 20.9544 14.1976 18.5951 13.4128M13.2246 21.281H5.40159V15.6244H13.2246C15.3252 15.6244 16.7532 16.8883 16.7532 18.4477C16.7532 20.007 15.3252 21.2709 13.2246 21.2709" fill="#D20A11"/>
<path d="M79.8856 25.1948L71.9592 15.2167C71.9592 15.2167 71.9074 15.1964 71.8867 15.2269L69.7551 20.3637C69.7551 20.3637 69.7447 20.4351 69.7551 20.4555L73.2216 25.0317C73.47 25.3579 73.7494 25.47 74.1633 25.47H79.7408C79.9063 25.47 79.9788 25.3171 79.8753 25.1846" fill="#D20A11"/>
<path d="M31.0228 8.10266H26.3973C26.2628 8.10266 26.1489 8.20458 26.1489 8.33708V25.2356C26.1489 25.368 26.2524 25.4802 26.3973 25.4802H31.0228C31.1573 25.4802 31.2608 25.368 31.2608 25.2356V8.33708C31.2608 8.20458 31.1573 8.10266 31.0228 8.10266Z" fill="#D20A11"/>
<path d="M50.0628 1.36572H45.4373C45.3028 1.36572 45.1993 1.47784 45.1993 1.60014V21.1689C44.1128 21.1689 43.5644 20.7409 43.1815 19.8338L36.89 4.65777C35.8759 2.41551 34.0961 1.36572 30.7537 1.36572H26.3973C26.2628 1.36572 26.1489 1.47784 26.1489 1.60014V5.43236C26.1489 5.55467 26.2524 5.66678 26.3973 5.66678H29.9155C31.3746 5.66678 32.0886 6.12542 32.5853 7.19559L38.794 22.178C39.8081 24.41 41.3396 25.47 44.682 25.47H49.8662C50.1042 25.47 50.2905 25.2763 50.2905 25.0521V1.60014C50.2905 1.46764 50.1767 1.36572 50.0525 1.36572" fill="#D20A11"/>
</g>
<defs>
<clipPath id="clip0_392_10863">
<rect width="188" height="26" fill="white"/>
</clipPath>
</defs>
</svg>
