<svg width="162" height="26" viewBox="0 0 162 26" fill="none" xmlns="http://www.w3.org/2000/svg">
<g clip-path="url(#clip0_392_10858)">
<path d="M154.273 13.8917H156.093C156.56 13.8917 156.947 13.7389 157.201 13.4637C157.465 13.1987 157.587 12.8216 157.587 12.3935V0.0509033H154.273V5.31002H151.171V8.20457H154.273V13.8917Z" fill="#716353"/>
<path d="M116.988 13.9224C120.598 12.679 123.892 10.2533 125.559 7.40968C127.237 10.2533 130.531 12.679 134.141 13.9224L134.273 13.9632L135.27 11.3438L135.168 11.2929C133.917 10.7221 132.057 9.50925 130.511 7.96006C128.966 6.41086 127.746 4.53552 127.746 2.66017V0.530029H123.414V2.66017C123.414 4.54571 122.194 6.42105 120.649 7.96006C119.103 9.50925 117.232 10.7221 115.992 11.2929L115.89 11.3438L116.887 13.9632L117.019 13.9224H116.988Z" fill="#716353"/>
<path d="M152.117 12.5159L152.178 12.4751V9.94748L151.975 10.0698C151.09 10.61 149.779 10.8036 148.091 10.8036H144.288C144.003 10.8036 143.77 10.5896 143.77 10.3144V8.38809H149.179V5.82988H143.77V3.54685H151.07V0.886719H140.15V10.9871C140.15 11.6903 140.363 12.3426 140.882 12.8115C141.401 13.2905 142.214 13.5657 143.373 13.5657H147.552C149.433 13.5657 150.877 13.2599 152.127 12.5057" fill="#716353"/>
<path d="M145.59 23.4214C145.59 24.1145 145.803 24.777 146.322 25.2458C146.851 25.7248 147.654 26 148.813 26H158.503C159.652 26 160.465 25.7146 160.983 25.2458C161.502 24.777 161.716 24.1247 161.716 23.4214V16.022H145.58V23.4214H145.59ZM149.443 18.8146H157.872V22.6774C157.872 22.9526 157.638 23.1666 157.354 23.1666H149.962C149.667 23.1666 149.443 22.9526 149.443 22.6774V18.8146Z" fill="#716353"/>
<path d="M158.686 0.0509033V13.8917H160.506C160.973 13.8917 161.36 13.7389 161.614 13.4637C161.878 13.1987 162 12.8216 162 12.3935V0.0509033H158.686Z" fill="#716353"/>
<path d="M97.1004 5.22857V1.25366H92.891V5.22857C92.891 9.76405 90.0441 13.4434 87.1769 15.6856L87.0752 15.7672L88.7732 18.0196L88.8749 17.9585C91.5794 16.5316 94.0705 13.3517 94.9856 11.4152C95.9108 13.3517 98.3917 16.5214 101.096 17.9585L101.208 18.0196L102.906 15.7672L102.804 15.6856C99.9372 13.4434 97.0903 9.75386 97.0903 5.22857" fill="#716353"/>
<path d="M105.936 24.5221H107.959C108.498 24.5221 108.935 24.3387 109.23 24.0431C109.525 23.7374 109.668 23.3093 109.668 22.8303V0H105.936V24.5221Z" fill="#716353"/>
<path d="M137.984 18.2642H113.135V21.3626H137.984V18.2642Z" fill="#716353"/>
<path d="M75.8604 5.63625H77.9448C78.077 5.63625 78.1888 5.52414 78.1888 5.39164V1.4575C78.1888 1.31481 78.077 1.21289 77.9448 1.21289H75.0165C71.6409 1.21289 69.8514 2.29325 68.8245 4.59666L62.4697 20.2007C62.0834 21.1384 61.5343 21.5767 60.4362 21.5767V1.4575C60.4362 1.31481 60.3244 1.21289 60.1922 1.21289H55.5253C55.3931 1.21289 55.2812 1.325 55.2812 1.4575V25.5618C55.2812 25.8064 55.4846 26 55.7185 26H60.9548C64.3304 26 65.8759 24.9197 66.9028 22.6163L73.1762 7.20583C73.6744 6.11528 74.3963 5.63625 75.8706 5.63625" fill="#D20A11"/>
<path d="M18.7999 13.6065C20.6707 12.8217 22.2263 11.0788 22.2263 8.16389C22.2263 3.84245 18.5253 1.21289 14.0516 1.21289H0.244022C0.101676 1.21289 0 1.325 0 1.4575V5.39164C0 5.52414 0.101676 5.63625 0.244022 5.63625H13.0857C15.1599 5.63625 16.563 6.90007 16.563 8.46965C16.563 10.0392 15.1599 11.2929 13.0857 11.2929H5.44982V8.37792C5.44982 8.23523 5.34815 8.12312 5.2058 8.12312H0.244022C0.101676 8.12312 0 8.23523 0 8.37792V25.7452C0 25.8777 0.101676 25.9898 0.244022 25.9898H13.8482C18.932 25.9898 22.572 23.6151 22.572 18.7637C22.572 16.3787 21.1689 14.4116 18.7897 13.5963M13.3602 21.6786H5.45999V15.8691H13.3602C15.4852 15.8691 16.929 17.1737 16.929 18.7738C16.929 20.374 15.4954 21.6786 13.3602 21.6786Z" fill="#D20A11"/>
<path d="M80.6901 25.7145L72.6882 15.4511C72.6882 15.4511 72.6272 15.4205 72.6171 15.4511L70.4616 20.7306C70.4616 20.7306 70.4514 20.8019 70.4616 20.8325L73.9694 25.5311C74.2134 25.8572 74.4981 25.9897 74.9149 25.9897H80.558C80.7206 25.9897 80.7918 25.8266 80.6901 25.7043" fill="#D20A11"/>
<path d="M31.3464 8.1333H26.6693C26.527 8.1333 26.4253 8.24541 26.4253 8.3881V25.7554C26.4253 25.8879 26.527 26 26.6693 26H31.3464C31.4786 26 31.5904 25.8879 31.5904 25.7554V8.3881C31.5904 8.24541 31.4786 8.1333 31.3464 8.1333Z" fill="#D20A11"/>
<path d="M50.5733 1.21283H45.9064C45.764 1.21283 45.6522 1.32494 45.6522 1.45744V21.5664C44.5541 21.5664 44.005 21.1282 43.6187 20.1905L37.2741 4.58641C36.2472 2.283 34.4577 1.20264 31.0719 1.20264H26.6693C26.527 1.20264 26.4253 1.31475 26.4253 1.44725V5.38139C26.4253 5.51389 26.527 5.626 26.6693 5.626H30.228C31.7023 5.626 32.4242 6.10503 32.9325 7.19558L39.2059 22.606C40.2329 24.9094 41.7783 25.9898 45.154 25.9898H50.3903C50.6241 25.9898 50.8275 25.7961 50.8275 25.5515V1.45744C50.8275 1.32494 50.7156 1.21283 50.5835 1.21283" fill="#D20A11"/>
</g>
<defs>
<clipPath id="clip0_392_10858">
<rect width="162" height="26" fill="white"/>
</clipPath>
</defs>
</svg>
