<svg width="184" height="26" viewBox="0 0 184 26" fill="none" xmlns="http://www.w3.org/2000/svg">
<g clip-path="url(#clip0_392_10864)">
<path d="M131.249 0.54012H127.678V13.535H129.743C130.699 13.535 131.259 12.8827 131.259 12.0368V8.06188H134.585V4.86156H131.259V0.54012H131.249ZM136.04 16.1136H160.178V13.3108H136.04V16.1136ZM143.811 22.2187V18.0705H139.885V22.9933C139.885 24.3692 140.769 25.5005 143.017 25.5005H157.574V22.6977H144.309C144.024 22.6977 143.801 22.4837 143.801 22.2187M102.238 3.41429H98.322V6.14577H102.238V8.51033H98.322V11.2112H102.238V13.9631H104.303C105.259 13.9631 105.809 13.3108 105.809 12.4649V0.54012H102.238V3.41429ZM97.9457 14.2485C93.9278 14.2485 90.6626 16.8678 90.6524 20.1293C90.6524 23.3908 93.9278 25.9999 97.9457 26.0101C101.953 26.0101 105.229 23.3908 105.229 20.1293C105.229 16.8678 101.953 14.2485 97.9457 14.2485ZM97.9457 23.136C95.9723 23.136 94.3957 21.7804 94.3957 20.1293C94.3957 18.468 95.9723 17.1124 97.9457 17.1124C99.919 17.1124 101.485 18.468 101.485 20.1293C101.485 21.7804 99.9088 23.136 97.9457 23.136ZM148.114 11.517C152.193 11.5068 155.529 8.95878 155.529 5.75847C155.529 2.56834 152.182 0.0101318 148.114 0.0101318C144.024 0.0101318 140.698 2.56834 140.688 5.75847C140.688 8.95878 144.024 11.5068 148.114 11.517ZM148.114 2.76199C150.199 2.76199 151.867 4.11754 151.867 5.74827C151.867 7.37901 150.199 8.73455 148.114 8.73455C146.028 8.73455 144.35 7.37901 144.35 5.74827C144.35 4.11754 146.018 2.76199 148.114 2.76199ZM97.8439 1.47779V1.35549H85.1392V4.11754H93.6633C92.9309 7.58285 88.9639 10.4366 84.6611 11.5578L84.5391 11.5883L85.2104 13.9631L85.3325 13.9427C91.7611 12.6381 97.6202 8.89763 97.8541 1.48798M115.024 22.9933C115.024 24.3692 115.909 25.5005 118.167 25.5005H128.116C130.374 25.5005 131.249 24.359 131.249 22.9933V15.4919H115.024V22.9933ZM118.839 18.2642H127.475V22.2187C127.475 22.4837 127.241 22.6977 126.966 22.6977H119.347C119.073 22.6977 118.839 22.4837 118.839 22.2187V18.2642ZM125.41 11.3845L125.471 11.3437V8.75494L125.267 8.87724C124.403 9.40723 123.131 9.60088 121.484 9.60088H115.736C115.452 9.60088 115.228 9.38685 115.228 9.12185V1.35549H111.149V9.90664C111.149 11.2826 112.034 12.4139 114.282 12.4139H120.944C122.775 12.4139 124.179 12.1183 125.39 11.3845M173.92 9.1932C173.92 7.59304 173.187 6.16615 171.936 5.22848H174.174V2.72123H170.065V0.529928H166.24V2.71103H162.11V5.21829H164.399C163.148 6.16615 162.415 7.59304 162.415 9.18301C162.415 12.0266 164.938 14.33 168.162 14.33C171.326 14.33 173.899 12.0368 173.899 9.18301M168.173 11.8533C166.565 11.8533 165.497 10.6507 165.487 9.13204C165.487 7.61342 166.565 6.41076 168.173 6.41076C169.77 6.41076 170.848 7.62362 170.858 9.13204C170.858 10.6405 169.78 11.8533 168.173 11.8533ZM180.613 0.529928V5.28963H178.945V0.529928H175.557V13.2904H177.49C178.416 13.2904 178.945 12.6585 178.945 11.8431V8.31668H180.613V13.2904H182.546C183.461 13.2904 184 12.6585 184 11.8431V0.529928H180.613ZM176.361 14.3606C172.353 14.3606 169.078 16.9494 169.078 20.1803C169.078 23.401 172.353 25.9897 176.361 25.9999C180.379 25.9999 183.654 23.4112 183.654 20.1803C183.654 16.9494 180.379 14.3708 176.361 14.3606ZM176.361 23.1971C174.367 23.1971 172.781 21.8314 172.781 20.1803C172.781 18.519 174.378 17.1634 176.361 17.1634C178.345 17.1634 179.952 18.519 179.952 20.1803C179.952 21.8314 178.345 23.1971 176.361 23.1971Z" fill="#716353"/>
<path d="M73.7976 5.67704H75.8218C75.954 5.67704 76.0557 5.56492 76.0557 5.43243V1.61039C76.0557 1.4779 75.9438 1.37598 75.8218 1.37598H72.9838C69.6983 1.37598 67.9589 2.42576 66.962 4.66802L60.7775 19.8338C60.4011 20.7409 59.862 21.169 58.794 21.169V1.61039C58.794 1.4779 58.6821 1.37598 58.5498 1.37598H54.0132C53.8809 1.37598 53.769 1.48809 53.769 1.61039V25.0522C53.769 25.2764 53.9623 25.4701 54.1861 25.4701H59.2822C62.5678 25.4701 64.0732 24.4203 65.0599 22.178L71.163 7.19566C71.6513 6.13568 72.3532 5.66684 73.7874 5.66684" fill="#D20A11"/>
<path d="M18.279 13.423C20.1099 12.6688 21.6153 10.9565 21.6153 8.13333C21.6153 3.924 18.0145 1.37598 13.6711 1.37598H0.233954C0.101719 1.37598 0 1.48809 0 1.61039V5.43242C0 5.56492 0.101719 5.67703 0.233954 5.67703H12.7353C14.7493 5.67703 16.1123 6.91028 16.1123 8.4289C16.1123 9.94752 14.7493 11.1808 12.7353 11.1808H5.30975V8.33717C5.30975 8.20467 5.20803 8.09256 5.06562 8.09256H0.233954C0.101719 8.09256 0 8.20467 0 8.33717V25.2254C0 25.3579 0.101719 25.4599 0.233954 25.4599H13.4676C18.4112 25.4599 21.9612 23.1463 21.9612 18.4375C21.9612 16.1239 20.5982 14.2078 18.279 13.4128M12.9896 21.2709H5.30975V15.6143H12.9896C15.0545 15.6143 16.4582 16.8781 16.4582 18.4375C16.4582 19.9969 15.0545 21.2607 12.9896 21.2607" fill="#D20A11"/>
<path d="M78.5069 25.1949L70.7152 15.2168C70.7152 15.2168 70.6644 15.1964 70.644 15.2168L68.5486 20.3536C68.5486 20.3536 68.5282 20.425 68.5486 20.4454L71.9562 25.0114C72.2003 25.3376 72.4648 25.4599 72.8717 25.4599H78.3543C78.5171 25.4599 78.5781 25.307 78.4866 25.1847" fill="#D20A11"/>
<path d="M30.4956 8.10266H25.9487C25.8165 8.10266 25.7046 8.21477 25.7046 8.34727V25.2356C25.7046 25.368 25.8063 25.47 25.9487 25.47H30.4956C30.6176 25.47 30.7295 25.368 30.7295 25.2356V8.34727C30.7295 8.21477 30.6176 8.10266 30.4956 8.10266Z" fill="#D20A11"/>
<path d="M49.1915 1.37598H44.6446C44.5124 1.37598 44.4107 1.48809 44.4107 1.61039V21.169C43.3426 21.169 42.8035 20.7409 42.4272 19.8338L36.2426 4.66802C35.2458 2.42576 33.5064 1.37598 30.2208 1.37598H25.9385C25.8062 1.37598 25.6943 1.48809 25.6943 1.61039V5.43243C25.6943 5.56492 25.7961 5.67704 25.9385 5.67704H29.3969C30.8312 5.67704 31.533 6.14587 32.0213 7.20585L38.1244 22.1882C39.1213 24.4305 40.6267 25.4802 43.9123 25.4802H49.0084C49.2423 25.4802 49.4356 25.2866 49.4356 25.0624V1.61039C49.4356 1.4779 49.3237 1.37598 49.2017 1.37598" fill="#D20A11"/>
</g>
<defs>
<clipPath id="clip0_392_10864">
<rect width="184" height="26" fill="white"/>
</clipPath>
</defs>
</svg>
