<svg width="187" height="26" viewBox="0 0 187 26" fill="none" xmlns="http://www.w3.org/2000/svg">
<g clip-path="url(#clip0_392_10861)">
<path d="M111.433 15.176H121.827V17.1533H115.095V19.7115H128.948V25.4496H130.916C131.467 25.4496 131.916 25.2662 132.222 24.9502C132.528 24.6343 132.681 24.196 132.681 23.7068V17.1533H125.785V15.176H136.139V12.414H111.443V15.176H111.433ZM115.595 11.4355C118.645 10.7119 121.868 9.11172 123.786 7.10388C125.694 9.11172 128.927 10.7221 131.977 11.4355L132.089 11.4661L133.018 9.04038L132.885 9.0098C130.896 8.45943 128.121 6.951 126.693 5.50372C126.255 5.05527 125.979 4.64759 125.867 4.27048H132.406V1.66131H125.847V0.0101921H121.695V1.65112H115.156V4.2501H121.695C121.583 4.62721 121.317 5.03489 120.879 5.48334C119.461 6.93062 116.676 8.43904 114.697 8.98942L114.565 9.01999L115.483 11.4457L115.595 11.4151V11.4355ZM145.758 9.83536C147.105 10.875 148.961 11.5171 151.012 11.5171C153.062 11.5171 154.919 10.875 156.265 9.83536C157.612 8.79577 158.458 7.35868 158.458 5.75853C158.458 4.15837 157.622 2.71109 156.265 1.68169C154.919 0.642101 153.062 0 151.012 0C148.961 0 147.115 0.642101 145.758 1.68169C144.412 2.72129 143.575 4.15837 143.575 5.75853C143.575 7.35868 144.412 8.79577 145.758 9.83536ZM148.339 3.64877C149.023 3.10858 149.971 2.77225 151.012 2.77225C152.052 2.77225 153.011 3.10858 153.684 3.64877C154.368 4.18895 154.776 4.93297 154.776 5.75853C154.776 6.58408 154.358 7.31791 153.684 7.86829C153.001 8.40847 152.062 8.755 151.012 8.755C149.961 8.755 149.023 8.41866 148.339 7.86829C147.656 7.32811 147.238 6.58408 147.238 5.75853C147.238 4.93297 147.656 4.18895 148.339 3.64877ZM103.568 8.17405H98.3046V11.2113H103.568V25.4598H105.771C106.292 25.4598 106.72 25.2866 107.006 24.991C107.291 24.6954 107.444 24.2775 107.444 23.8087V1.09055H103.568V8.17405ZM94.4793 6.28851V5.38142H99.0798V2.60917H85.9515V5.38142H90.5418V6.28851C90.5418 10.5488 87.5938 14.1058 84.8804 16.3073L84.7886 16.3787L86.4513 18.5598L86.5533 18.5088C88.9097 17.3163 91.6129 14.116 92.5207 12.1795C93.4184 14.1058 96.1216 17.3062 98.4882 18.5088L98.5902 18.5598L100.253 16.3787L100.161 16.3073C97.4477 14.1058 94.4895 10.559 94.4895 6.28851M138.904 16.1239H163.11V13.3211H138.904V16.1239ZM184.501 16.0627C183.175 15.0129 181.359 14.3606 179.349 14.3606C177.34 14.3606 175.514 15.0027 174.188 16.0627C172.862 17.1125 172.036 18.57 172.036 20.1803C172.036 21.7907 172.862 23.2583 174.188 24.3081C175.514 25.3579 177.33 26 179.349 26C181.369 26 183.185 25.3477 184.501 24.3081C185.827 23.2583 186.653 21.8009 186.653 20.1803C186.653 18.5598 185.827 17.1125 184.501 16.0627ZM181.9 22.3207C181.247 22.871 180.339 23.2074 179.339 23.2074C178.34 23.2074 177.432 22.8608 176.789 22.3207C176.136 21.7703 175.738 21.0161 175.738 20.1905C175.738 19.365 176.136 18.6107 176.789 18.0604C177.442 17.51 178.34 17.1737 179.339 17.1737C180.339 17.1737 181.237 17.51 181.9 18.0604C182.542 18.6107 182.95 19.365 182.95 20.1905C182.95 21.0161 182.552 21.7703 181.9 22.3207ZM183.603 0.529988V5.29988H181.94V0.529988H178.544V13.2905H180.482C180.941 13.2905 181.318 13.1376 181.563 12.8726C181.818 12.6076 181.94 12.2509 181.94 11.8432V8.31674H183.603V13.2905H185.551C186 13.2905 186.378 13.1376 186.623 12.8726C186.878 12.6076 187 12.2509 187 11.8432V0.529988H183.603ZM176.891 9.19326C176.891 7.5931 176.157 6.16621 174.902 5.21835H177.146V2.71109H173.025V0.529988H169.19V2.71109H165.048V5.21835H167.343C166.088 6.16621 165.354 7.5931 165.354 9.19326C165.354 10.61 165.986 11.9044 167.027 12.8318C168.067 13.7695 169.506 14.3403 171.117 14.3403C174.29 14.3403 176.871 12.0368 176.871 9.19326M171.138 11.8534C169.516 11.8534 168.445 10.6507 168.445 9.13211C168.445 7.61349 169.516 6.42101 171.138 6.41082C172.739 6.41082 173.821 7.61349 173.831 9.13211C173.831 10.6405 172.75 11.8432 171.138 11.8534ZM146.707 22.2187V18.0808H142.759V23.0035C142.759 23.6864 142.974 24.3183 143.473 24.777C143.983 25.2458 144.769 25.5108 145.901 25.5108H160.509V22.6978H147.207C146.931 22.6978 146.707 22.4837 146.707 22.2187Z" fill="#716353"/>
<path d="M74.0062 5.67697H76.0361C76.1687 5.67697 76.2707 5.56486 76.2707 5.43236V1.61033C76.2707 1.47784 76.1585 1.36572 76.0361 1.36572H73.1901C69.8953 1.36572 68.1509 2.41551 67.1411 4.65777L60.939 19.8338C60.5616 20.7409 60.0209 21.1689 58.9499 21.1689V1.61033C58.9499 1.47784 58.8377 1.36572 58.705 1.36572H54.1555C54.0229 1.36572 53.9209 1.46764 53.9209 1.61033V25.0419C53.9209 25.2763 54.1045 25.47 54.3391 25.47H59.4497C62.7445 25.47 64.2542 24.4202 65.2539 22.178L71.3744 7.19559C71.864 6.12542 72.5679 5.66678 74.0062 5.66678" fill="#D20A11"/>
<path d="M18.3307 13.423C20.1669 12.6688 21.6664 10.9565 21.6664 8.13333C21.6664 3.93419 18.0553 1.37598 13.6996 1.37598H0.234617C0.102007 1.37598 0 1.4779 0 1.62059V5.44262C0 5.57511 0.102007 5.68723 0.234617 5.68723H12.7611C14.7911 5.68723 16.158 6.92047 16.158 8.43909C16.158 9.95771 14.7911 11.191 12.7611 11.191H5.31459V8.34736C5.31459 8.21486 5.21258 8.10275 5.07997 8.10275H0.234617C0.102007 8.10275 0 8.21486 0 8.34736V25.2356C0 25.3681 0.102007 25.4701 0.234617 25.4701H13.5058C18.4735 25.4701 22.0234 23.1565 22.0234 18.4477C22.0234 16.1341 20.6565 14.218 18.3307 13.423ZM13.0263 21.2709H5.32479V15.6143H13.0263C15.1073 15.6143 16.5048 16.8781 16.5048 18.4375C16.5048 19.9969 15.0971 21.2607 13.0263 21.2607" fill="#D20A11"/>
<path d="M78.719 25.1949L70.9052 15.2168C70.9052 15.2168 70.844 15.1964 70.844 15.2168L68.7427 20.3536C68.7427 20.3536 68.7427 20.425 68.7529 20.4454L72.1599 25.0216C72.4047 25.3478 72.6802 25.4701 73.078 25.4701H78.5762C78.7394 25.4701 78.8108 25.3172 78.7088 25.1949" fill="#D20A11"/>
<path d="M30.5717 8.10266H26.012C25.8794 8.10266 25.7773 8.21477 25.7773 8.34727V25.2356C25.7773 25.368 25.8794 25.47 26.012 25.47H30.5717C30.7043 25.47 30.8063 25.3579 30.8063 25.2356V8.34727C30.8063 8.21477 30.6941 8.10266 30.5717 8.10266Z" fill="#D20A11"/>
<path d="M49.3308 1.37591H44.7711C44.6385 1.37591 44.5365 1.47784 44.5365 1.62052V21.1791C43.4654 21.1791 42.9247 20.7511 42.5473 19.844L36.3453 4.66796C35.3456 2.4257 33.6013 1.37591 30.3064 1.37591H26.0119C25.8793 1.37591 25.7671 1.47784 25.7671 1.62052V5.44255C25.7671 5.57505 25.8793 5.67697 26.0119 5.67697H29.4802C30.9185 5.67697 31.6223 6.13562 32.112 7.20578L38.2324 22.1881C39.2321 24.4202 40.7316 25.4802 44.0366 25.4802H49.1472C49.3818 25.4802 49.5756 25.2865 49.5756 25.0521V1.61033C49.5756 1.47784 49.4736 1.36572 49.341 1.36572" fill="#D20A11"/>
</g>
<defs>
<clipPath id="clip0_392_10861">
<rect width="187" height="26" fill="white"/>
</clipPath>
</defs>
</svg>
