<svg width="188" height="26" viewBox="0 0 188 26" fill="none" xmlns="http://www.w3.org/2000/svg">
<g clip-path="url(#clip0_392_10859)">
<path d="M94.4492 22.1882V16.8169H90.4164V22.9628C90.4164 23.6456 90.6308 24.2775 91.1311 24.7362C91.6415 25.1948 92.4277 25.47 93.5609 25.47H107.272V22.6672H94.9495C94.6738 22.6672 94.439 22.4532 94.439 22.1882M106.629 17.4998C106.895 17.2348 107.017 16.8577 107.017 16.4296V0.866327H103.25V17.9279H105.506C105.976 17.9279 106.364 17.775 106.629 17.4998ZM128.917 16.9087C127.528 15.9608 125.629 15.3799 123.536 15.3799C121.443 15.3799 119.534 15.9608 118.146 16.9087C116.767 17.8565 115.9 19.1815 115.9 20.6695C115.9 23.6456 119.34 26 123.536 26C127.733 26 131.163 23.6456 131.173 20.6695C131.173 19.1815 130.305 17.8565 128.917 16.9087ZM126.273 22.5551C125.578 23.0443 124.608 23.3501 123.536 23.3501C122.464 23.3501 121.494 23.0443 120.79 22.5551C120.096 22.0659 119.677 21.3932 119.677 20.6695C119.677 19.9459 120.096 19.2732 120.79 18.784C121.484 18.2948 122.454 17.989 123.536 17.989C124.619 17.989 125.578 18.2948 126.273 18.784C126.967 19.2732 127.385 19.9459 127.385 20.6695C127.385 21.3932 126.967 22.0557 126.273 22.5551ZM98.5841 14.6562L98.6862 14.7072L98.7474 14.6154L100.361 12.5057L100.177 12.3936C97.0526 10.3042 94.684 7.36888 94.684 3.76088V1.36574H90.5491V3.77107C90.5491 7.53195 87.6292 11.038 84.9849 12.7095L84.8726 12.7809L86.5469 14.9824L86.649 14.9314C88.7318 13.902 91.4986 11.1094 92.6217 9.06076C93.6937 10.9871 96.3584 13.5759 98.5943 14.6664M128.723 9.35633C130.213 8.37789 131.163 6.97138 131.163 5.4018C131.163 2.38495 127.722 0 123.536 0C119.35 0 115.91 2.38495 115.9 5.4018C115.9 6.97138 116.849 8.37789 118.35 9.35633V12.1082H111.407V14.8295H135.676V12.1082H128.733V9.36652L128.723 9.35633ZM125.313 12.098H121.74V10.6507C122.311 10.7425 122.914 10.7934 123.526 10.7934C124.139 10.7934 124.741 10.7425 125.313 10.6507V12.098ZM126.293 7.49118C125.589 8.01098 124.608 8.33712 123.536 8.33712C122.464 8.33712 121.474 8.01098 120.77 7.49118C120.065 6.97138 119.647 6.26813 119.647 5.49353C119.647 4.71893 120.065 4.00549 120.77 3.48569C121.474 2.9659 122.454 2.63975 123.536 2.63975C124.619 2.63975 125.599 2.9659 126.293 3.48569C126.997 4.00549 127.426 4.71893 127.426 5.49353C127.426 6.26813 126.997 6.98158 126.293 7.49118ZM177.75 18.3661V13.6064H181.149C182.283 13.6064 183.069 13.3312 183.579 12.8726C184.09 12.414 184.294 11.7719 184.294 11.089V1.35555H180.659V3.97491H171.113V1.35555H167.468V11.089C167.468 11.7719 167.683 12.414 168.183 12.8726C168.694 13.3312 169.49 13.6064 170.613 13.6064H173.982V18.3661H163.732V21.383H188V18.3661H177.75ZM171.654 10.8444C171.368 10.8444 171.144 10.6303 171.144 10.3653V6.66562H180.629V10.3653C180.629 10.6303 180.394 10.8444 180.118 10.8444H171.644H171.654ZM157.432 16.0627C156.105 15.0129 154.288 14.3606 152.266 14.3606C150.245 14.3606 148.427 15.0129 147.1 16.0627C145.773 17.1125 144.946 18.57 144.946 20.1803C144.946 21.7907 145.773 23.2583 147.1 24.3081C148.427 25.3579 150.245 26.0102 152.266 26.0102C154.288 26.0102 156.105 25.3579 157.432 24.3081C158.76 23.2583 159.587 21.8009 159.587 20.1803C159.587 18.5598 158.76 17.1125 157.432 16.0627ZM154.706 22.2187C154.084 22.7385 153.216 23.0647 152.266 23.0647C151.317 23.0647 150.459 22.7385 149.826 22.2187C149.203 21.6989 148.826 20.9753 148.826 20.1803C148.826 19.3853 149.203 18.6719 149.826 18.1419C150.449 17.6119 151.307 17.296 152.266 17.296C153.226 17.296 154.084 17.6221 154.706 18.1419C155.329 18.6719 155.707 19.3853 155.707 20.1803C155.707 20.9753 155.329 21.6989 154.706 22.2187ZM151.858 13.2497L151.95 13.2905L152.011 13.2089L153.522 11.1705L153.4 11.0992C149.53 9.11172 147.682 6.85927 147.682 4.32144V4.14818H152.46V1.37593H139.341V4.13799H144.088V4.31125C144.088 6.85927 142.312 9.1423 138.391 11.3642L138.269 11.4355L139.841 13.5555L139.943 13.5147C142.026 12.6382 144.568 10.8851 145.895 8.90788C147.223 10.875 149.775 12.4445 151.858 13.2599M156.626 5.37123H152.154V8.37789H156.626V13.107H158.709C159.178 13.107 159.566 12.9439 159.821 12.6789C160.077 12.4038 160.209 12.0368 160.209 11.6088V0H156.626V5.36104V5.37123Z" fill="#716353"/>
<path d="M74.071 5.67704H76.1027C76.2355 5.67704 76.3478 5.56492 76.3478 5.44262V1.61039C76.3478 1.4779 76.2355 1.37598 76.1027 1.37598H73.2542C69.9565 1.37598 68.2005 2.42576 67.1999 4.66802L60.9925 19.844C60.6147 20.7511 60.0736 21.1792 59.0016 21.1792V1.61039C59.0016 1.4779 58.8995 1.37598 58.7668 1.37598H54.2133C54.0806 1.37598 53.9683 1.4779 53.9683 1.61039V25.0522C53.9683 25.2866 54.152 25.4802 54.3971 25.4802H59.5121C62.8098 25.4802 64.3208 24.4305 65.3214 22.1882L71.4471 7.20585C71.9372 6.14587 72.6417 5.67704 74.0812 5.67704" fill="#D20A11"/>
<path d="M18.3569 13.423C20.1844 12.6586 21.6954 10.9565 21.6954 8.13333C21.6954 3.93419 18.0812 1.37598 13.7115 1.37598H0.234821C0.102096 1.37598 0 1.4779 0 1.61039V5.43242C0 5.56492 0.102096 5.66684 0.234821 5.66684H12.7824C14.8142 5.66684 16.1823 6.90008 16.1823 8.4187C16.1823 9.93732 14.8142 11.1706 12.7824 11.1706H5.32942V8.32698C5.32942 8.19448 5.22733 8.09256 5.08439 8.09256H0.234821C0.102096 8.09256 0 8.19448 0 8.32698V25.2153C0 25.3477 0.102096 25.4599 0.234821 25.4599H13.5175C18.4794 25.4599 22.0426 23.1463 22.0426 18.4375C22.0426 16.1239 20.6745 14.2078 18.3467 13.4128M13.0377 21.2709H5.32942V15.6143H13.0377C15.1102 15.6143 16.5192 16.8781 16.5192 18.4375C16.5192 19.9969 15.1205 21.2607 13.0377 21.2607" fill="#D20A11"/>
<path d="M78.7877 25.1949L70.9671 15.2169C70.9671 15.2169 70.9059 15.1965 70.8957 15.2271L68.7925 20.3639C68.7925 20.3639 68.7925 20.4352 68.7925 20.4658L72.2127 25.0318C72.4577 25.358 72.7334 25.4803 73.1316 25.4803H78.6448C78.8081 25.4803 78.8694 25.3274 78.7775 25.2051" fill="#D20A11"/>
<path d="M30.5983 8.10266H26.0346C25.9019 8.10266 25.7896 8.20458 25.7896 8.33708V25.2254C25.7896 25.3579 25.9019 25.4598 26.0346 25.4598H30.5983C30.731 25.4598 30.8433 25.3477 30.8433 25.2254V8.34727C30.8433 8.21477 30.731 8.11285 30.5983 8.11285" fill="#D20A11"/>
<path d="M49.3738 1.37591H44.8101C44.6774 1.37591 44.5753 1.47784 44.5753 1.62052V21.1791C43.5032 21.1791 42.9621 20.7511 42.5844 19.844L36.3769 4.66796C35.3764 2.4257 33.6305 1.37591 30.3328 1.37591H26.0346C25.9019 1.37591 25.7896 1.47784 25.7896 1.62052V5.44255C25.7896 5.57505 25.9019 5.67697 26.0346 5.67697H29.5059C30.9454 5.67697 31.6499 6.14581 32.1399 7.20578L38.2555 22.1881C39.256 24.4304 40.7671 25.4802 44.0648 25.4802H49.1798C49.4146 25.4802 49.5984 25.2865 49.5984 25.0623V1.61033C49.5984 1.47784 49.4963 1.36572 49.3636 1.36572" fill="#D20A11"/>
</g>
<defs>
<clipPath id="clip0_392_10859">
<rect width="188" height="26" fill="white"/>
</clipPath>
</defs>
</svg>
