<svg width="209" height="26" viewBox="0 0 209 26" fill="none" xmlns="http://www.w3.org/2000/svg">
<g clip-path="url(#clip0_392_10862)">
<path d="M84.946 4.63734H87.2645C87.4177 4.63734 87.5402 4.52522 87.5402 4.38253V0.264934C87.5402 0.122245 87.4177 0.0101318 87.2645 0.0101318H83.9961C80.2069 0.0101318 78.205 1.14145 77.0611 3.55698L69.9423 19.9255C69.5133 20.9039 68.8903 21.3625 67.6647 21.3625V0.264934C67.6647 0.122245 67.5421 0.0101318 67.3889 0.0101318H62.1596C62.0064 0.0101318 61.8838 0.122245 61.8838 0.264934V25.5515C61.8838 25.8063 62.0983 26.0101 62.374 26.0101H68.2366C72.0258 26.0101 73.7519 24.8788 74.8959 22.4633L81.9228 6.30884C82.4845 5.15713 83.2914 4.65772 84.946 4.65772" fill="#D20A11"/>
<path d="M21.0501 13.0051C23.1541 12.1795 24.8904 10.345 24.8904 7.29753C24.8904 2.75186 20.7335 0 15.7289 0H0.275766C0.122563 0 0 0.112113 0 0.264994V4.39279C0 4.53548 0.122563 4.64759 0.275766 4.64759H14.6565C16.9851 4.64759 18.558 5.98275 18.558 7.62368C18.558 9.2646 16.9851 10.5998 14.6565 10.5998H6.11792V7.53195C6.11792 7.38926 5.99536 7.26695 5.84215 7.26695H0.275766C0.122563 7.26695 0 7.38926 0 7.53195V25.7554C0 25.8981 0.122563 26.0102 0.275766 26.0102H15.5042C21.2033 26.0102 25.2786 23.5131 25.2786 18.4375C25.2786 15.9302 23.7057 13.8714 21.0399 13.0153M14.9629 21.4747H6.11792V15.3799H14.9629C17.3426 15.3799 18.9461 16.7456 18.9461 18.4273C18.9461 20.109 17.3324 21.4747 14.9629 21.4747Z" fill="#D20A11"/>
<path d="M90.3594 25.7045L81.3919 14.9416C81.3919 14.9416 81.3306 14.9212 81.3204 14.962L78.91 20.4963C78.91 20.4963 78.8895 20.5676 78.91 20.5982L82.832 25.5312C83.1077 25.8777 83.4141 26.0102 83.8942 26.0102H90.2061C90.39 26.0102 90.4717 25.8471 90.3594 25.7147" fill="#D20A11"/>
<path d="M35.094 7.26691H29.8544C29.7012 7.26691 29.5889 7.38921 29.5889 7.5319V25.7553C29.5889 25.898 29.7114 26.0101 29.8544 26.0101H35.094C35.2472 26.0101 35.3697 25.898 35.3697 25.7553V7.52171C35.3697 7.37902 35.2472 7.25671 35.094 7.25671" fill="#D20A11"/>
<path d="M56.6242 0H51.4051C51.2519 0 51.1293 0.112113 51.1293 0.264994V21.3626C49.9037 21.3626 49.2806 20.8938 48.8517 19.9255L41.7328 3.55704C40.5889 1.14151 38.5871 0.0101921 34.7978 0.0101921H29.8647C29.7115 0.0101921 29.5991 0.122305 29.5991 0.275186V4.40298C29.5991 4.54567 29.7217 4.65778 29.8647 4.65778H33.8582C35.5128 4.65778 36.3196 5.15719 36.8814 6.3089L43.9083 22.4735C45.0522 24.8891 46.7885 26.0204 50.5676 26.0204H56.4301C56.6957 26.0204 56.9204 25.8165 56.9204 25.5617V0.264994C56.9204 0.122305 56.7978 0 56.6446 0" fill="#D20A11"/>
<path d="M143.429 0.326172V8.29638H139.946V11.3846H143.429V25.8981H145.788C146.769 25.8981 147.566 25.1031 147.566 24.1247V0.326172H143.439H143.429Z" fill="#716353"/>
<path d="M134.758 6.92043V6.08468H139.691V3.03725H134.758V0.122314H130.621V3.04744H125.688V6.09487H130.621V6.93063C130.621 8.68366 130.192 13.0968 124.176 15.8997L126.168 18.7942C126.168 18.7942 129.487 16.8781 131.06 15.3493C131.796 14.6358 132.327 13.953 132.694 13.4434C133.052 13.9632 133.593 14.6358 134.329 15.3493C135.901 16.8781 139.221 18.7942 139.221 18.7942L141.212 15.8997C135.186 13.0866 134.768 8.68366 134.768 6.93063" fill="#716353"/>
<path d="M209 8.28619V11.3744H205.476V24.1145C205.476 25.0929 204.68 25.8777 203.699 25.8777H201.34V0.326172H205.466V8.29638H208.99L209 8.28619ZM192.658 5.86047V5.02472H197.592V1.97729H183.589V5.02472H188.522V5.86047C188.522 7.61351 188.042 12.9644 182.077 16.236L184.069 19.1306C184.069 19.1306 186.612 17.4489 188.175 15.9201C188.808 15.2983 190.156 13.4026 190.585 12.4446C191.014 13.4026 192.362 15.2983 192.995 15.9201C194.568 17.4489 197.112 19.1306 197.112 19.1306L199.103 16.236C193.138 12.9644 192.658 7.61351 192.658 5.86047Z" fill="#716353"/>
<path d="M109.479 5.84003H107.488V1.00898H103.361V5.28965H101.165V1.00898H97.0391V12.047C97.0391 13.4535 98.1932 14.595 99.6027 14.595H107.488V8.88746H109.479V17.4386H111.839C112.819 17.4386 113.616 16.6436 113.616 15.6652V0.315918H109.489V5.84003H109.479ZM103.361 12.1897H101.165V7.70518H103.361V12.1897Z" fill="#716353"/>
<path d="M114.954 0.326172V17.4489H117.303C118.283 17.4489 119.08 16.6539 119.08 15.6754V0.326172H114.954Z" fill="#716353"/>
<path d="M100.797 21.5767V18.0808H104.924V22.229C104.924 22.5551 105.189 22.8303 105.526 22.8303H119.366V25.8778H103.351C101.941 25.8778 100.797 24.7362 100.797 23.3297V21.5767Z" fill="#716353"/>
<path d="M178.686 15.0639H152.723V18.1113H163.55V25.8777H165.909C166.889 25.8777 167.686 25.0827 167.686 24.1043V18.1011H178.686V15.0537V15.0639Z" fill="#716353"/>
<path d="M156.186 8.8875V0.907104H175.213V3.95454H160.312V5.7993H174.355V8.21483H160.312V9.45826C160.312 9.78441 160.577 10.0596 160.914 10.0596H175.213V13.107H158.739C157.329 13.107 156.186 11.9655 156.186 10.559V8.8875Z" fill="#716353"/>
</g>
<defs>
<clipPath id="clip0_392_10862">
<rect width="209" height="26" fill="white"/>
</clipPath>
</defs>
</svg>
