<svg width="173" height="26" viewBox="0 0 173 26" fill="none" xmlns="http://www.w3.org/2000/svg">
<g clip-path="url(#clip0_392_10868)">
<path d="M111.344 7.61348H109.342V0H105.758V26H107.555C108.117 26 108.577 25.8165 108.883 25.5006C109.189 25.1744 109.342 24.7362 109.342 24.2368V10.7832H111.344V25.9898H113.059C113.611 25.9898 114.07 25.8064 114.377 25.4904C114.683 25.1643 114.836 24.726 114.836 24.2266V0H111.344V7.61348Z" fill="#716353"/>
<path d="M91.9835 19.1C99.2335 15.9506 103.032 8.58172 103.175 1.57976V1.44727H91.3197V4.39278H98.8353C98.7638 5.33045 98.5493 6.35985 98.1919 7.41983H91.9937V10.2736H96.9359C95.4962 13.2293 93.6275 15.1964 90.5947 16.8475L91.9835 19.1Z" fill="#716353"/>
<path d="M156.417 22.4939V21.1078H169.355V14.1874H152.333V16.766H165.311V18.6311H152.333V23.3195C152.333 24.0431 152.557 24.726 153.109 25.2152C153.65 25.7044 154.497 26 155.702 26H169.692V23.0035H156.958C156.662 23.0035 156.417 22.7793 156.417 22.4939Z" fill="#716353"/>
<path d="M169.426 4.04626V0H165.597V13.0459H167.823C168.323 13.0459 168.732 12.8828 169.017 12.5974C169.293 12.312 169.436 11.9145 169.436 11.4559V7.37907H173.01V4.04626H169.436H169.426Z" fill="#716353"/>
<path d="M163.044 9.00981C162.115 9.57037 160.757 9.77421 158.98 9.77421H152.823C152.516 9.77421 152.271 9.54999 152.271 9.26461V7.91925H161.043V5.412H152.271V3.64877H161.982V0.866333H148.34V9.85575C148.34 10.5896 148.564 11.2623 149.106 11.7617C149.647 12.2509 150.494 12.5465 151.71 12.5465H158.429C160.389 12.5465 161.89 12.2305 163.197 11.4457L163.259 11.4049V8.87731L163.044 8.99961V9.00981Z" fill="#716353"/>
<path d="M133.472 4.57619H135.361V1.62048H120.544V4.57619H122.576V16.1544H120.156V19.0999H135.749V16.1544H133.462V4.57619H133.472ZM129.694 16.1442H126.324V4.57619H129.694V16.1544V16.1442Z" fill="#716353"/>
<path d="M138.996 0V26H141.079C141.641 26 142.09 25.8165 142.396 25.5006C142.713 25.1744 142.856 24.7362 142.856 24.2368V0H138.996Z" fill="#716353"/>
<path d="M78.9946 4.89222H81.1594C81.3023 4.89222 81.4147 4.78011 81.4147 4.63742V0.560588C81.4147 0.417899 81.3023 0.305786 81.1594 0.305786H78.1164C74.6037 0.305786 72.735 1.42692 71.6731 3.82205L65.0561 19.9969C64.6579 20.9549 64.0759 21.4238 62.9322 21.4238V0.560588C62.9322 0.417899 62.8199 0.305786 62.6769 0.305786H57.8163C57.6734 0.305786 57.561 0.417899 57.561 0.560588V25.5516C57.561 25.7962 57.7653 26 58.0103 26H63.4632C66.9861 26 68.5892 24.8789 69.6512 22.4939L76.1763 6.52296C76.7072 5.39163 77.4527 4.89222 78.9844 4.89222" fill="#D20A11"/>
<path d="M19.5649 13.158C21.5152 12.3528 23.1388 10.5284 23.1388 7.52178C23.1388 3.02707 19.279 0.305786 14.6226 0.305786H0.255283C0.112324 0.305786 0 0.417899 0 0.560588V4.63742C0 4.78011 0.112324 4.89222 0.255283 4.89222H13.6321C15.7867 4.89222 17.2469 6.207 17.2469 7.82754C17.2469 9.44808 15.7867 10.7629 13.6321 10.7629H5.6877V7.73581C5.6877 7.59312 5.57538 7.48101 5.43242 7.48101H0.255283C0.112324 7.48101 0 7.59312 0 7.73581V25.7452C0 25.8879 0.112324 26 0.255283 26H14.4184C19.718 26 23.5064 23.5335 23.5064 18.5088C23.5064 16.0424 22.0462 14.0039 19.5649 13.1478M13.9078 21.5257H5.6877V15.5022H13.9078C16.1237 15.5022 17.6247 16.8475 17.6247 18.519C17.6247 20.1905 16.1339 21.5359 13.9078 21.5359" fill="#D20A11"/>
<path d="M84.0187 25.7044L75.6862 15.0639C75.6862 15.0639 75.625 15.0333 75.6148 15.0639L73.3683 20.537C73.3683 20.537 73.3581 20.6084 73.3785 20.639L77.0239 25.5108C77.2792 25.8573 77.5753 25.9796 78.0042 25.9796H83.8757C84.0493 25.9796 84.1208 25.8165 84.0187 25.684" fill="#D20A11"/>
<path d="M32.6354 7.48096H27.7646C27.6216 7.48096 27.5093 7.59307 27.5093 7.73576V25.7452C27.5093 25.8879 27.6216 26 27.7646 26H32.6354C32.7783 26 32.8906 25.8879 32.8906 25.7452V7.73576C32.8906 7.59307 32.7783 7.48096 32.6354 7.48096Z" fill="#D20A11"/>
<path d="M52.6598 0.305724H47.7992C47.6562 0.305724 47.5439 0.417837 47.5439 0.560526V21.4135C46.4002 21.4135 45.8284 20.9447 45.42 19.9866L38.803 3.8118C37.7411 1.41666 35.8724 0.295532 32.3597 0.295532H27.7748C27.6319 0.295532 27.5195 0.407645 27.5195 0.550334V4.62717C27.5195 4.76986 27.6319 4.88197 27.7748 4.88197H31.4815C33.0132 4.88197 33.7689 5.38138 34.2896 6.5127L40.8147 22.4837C41.8868 24.8686 43.49 25.9898 47.0129 25.9898H52.4658C52.7108 25.9898 52.9151 25.7859 52.9151 25.5413V0.560526C52.9151 0.417837 52.8027 0.305724 52.6598 0.305724Z" fill="#D20A11"/>
</g>
<defs>
<clipPath id="clip0_392_10868">
<rect width="173" height="26" fill="white"/>
</clipPath>
</defs>
</svg>
