<svg width="187" height="26" viewBox="0 0 187 26" fill="none" xmlns="http://www.w3.org/2000/svg">
<g clip-path="url(#clip0_392_10865)">
<path d="M73.8474 4.84122H75.8727C76.005 4.84122 76.1169 4.72911 76.1169 4.59661V0.774579C76.1169 0.642082 76.005 0.540161 75.8727 0.540161H73.0332C69.7459 0.540161 67.9954 1.58995 66.998 3.8322L60.8101 18.998C60.4335 19.9051 59.8941 20.3332 58.8255 20.3332V0.774579C58.8255 0.642082 58.7135 0.540161 58.5812 0.540161H54.0421C53.9098 0.540161 53.7979 0.642082 53.7979 0.774579V24.2164C53.7979 24.4508 53.9912 24.6444 54.2253 24.6444H59.3242C62.6115 24.6444 64.1178 23.5947 65.1151 21.3524L71.2216 6.37003C71.7101 5.31006 72.4124 4.84122 73.8474 4.84122Z" fill="#D20A11"/>
<path d="M18.2888 12.5975C20.1106 11.833 21.627 10.131 21.627 7.30776C21.627 3.09844 18.0242 0.550415 13.6683 0.550415H0.234081C0.101774 0.550415 0 0.652336 0 0.784833V4.60686C0 4.73936 0.101774 4.85147 0.234081 4.85147H12.7421C14.7573 4.85147 16.121 6.08471 16.121 7.60333C16.121 9.12195 14.7573 10.3552 12.7421 10.3552H5.31261V7.51161C5.31261 7.37911 5.21084 7.27719 5.06836 7.27719H0.234081C0.101774 7.27719 0 7.3893 0 7.51161V24.3999C0 24.5324 0.101774 24.6343 0.234081 24.6343H13.4749C18.4211 24.6343 21.9731 22.3207 21.9731 17.612C21.9731 15.2984 20.6093 13.3822 18.2888 12.5873M12.9966 20.4454H5.31261V14.7888H12.9966C15.0728 14.7888 16.4671 16.0526 16.4671 17.612C16.4671 19.1713 15.0728 20.4352 12.9966 20.4352" fill="#D20A11"/>
<path d="M78.5493 24.3693L70.7534 14.3913C70.7534 14.3913 70.7025 14.3607 70.6821 14.3913L68.5856 19.5281C68.5856 19.5281 68.5754 19.5994 68.5856 19.6198L71.995 24.1859C72.2393 24.512 72.5039 24.6343 72.911 24.6343H78.3966C78.5595 24.6343 78.6307 24.4814 78.5289 24.3591" fill="#D20A11"/>
<path d="M30.5118 7.27716H25.9625C25.8302 7.27716 25.7183 7.38927 25.7183 7.52177V24.41C25.7183 24.5425 25.82 24.6445 25.9625 24.6445H30.5118C30.6441 24.6445 30.7459 24.5425 30.7459 24.41V7.51158C30.7459 7.37908 30.634 7.26697 30.5118 7.26697" fill="#D20A11"/>
<path d="M49.228 0.540161H44.6787C44.5464 0.540161 44.4446 0.642082 44.4446 0.774579V20.3332C43.376 20.3332 42.8366 19.9051 42.46 18.998L36.2722 3.8322C35.2748 1.58995 33.5344 0.540161 30.237 0.540161H25.9523C25.82 0.540161 25.708 0.642082 25.708 0.774579V4.59661C25.708 4.72911 25.8098 4.84122 25.9523 4.84122H29.4126C30.8476 4.84122 31.5498 5.31006 32.0384 6.37003L38.1346 21.3524C39.132 23.5947 40.6383 24.6444 43.9256 24.6444H49.0245C49.2586 24.6444 49.4418 24.4508 49.4418 24.2164V0.774579C49.4418 0.642082 49.34 0.540161 49.2077 0.540161" fill="#D20A11"/>
<path d="M121.447 5.19802V4.29092H126.118V1.51868H113.02V4.29092H117.692V5.19802C117.692 9.45831 114.659 13.0052 111.951 15.2066L111.86 15.278L113.519 17.4591L113.621 17.4081C115.972 16.2157 118.669 13.0052 119.574 11.0788C120.47 13.0052 123.167 16.2157 125.528 17.4081L125.63 17.4591L127.279 15.278L127.187 15.2066C124.49 13.0052 121.437 9.45831 121.447 5.19802Z" fill="#716353"/>
<path d="M91.4443 12.1183H106.049V9.43781H92.4926C92.2178 9.43781 91.9939 9.22377 91.9939 8.95878V7.62362H105.245V5.26925H91.9939V3.4041H106.059V0.815308H88.3198V9.61107C88.3198 10.2939 88.5335 10.9259 89.0424 11.3845C89.5513 11.8431 90.335 12.1183 91.4647 12.1183" fill="#716353"/>
<path d="M142.057 10.0494L142.169 10.0189C145.72 9.17292 148.794 7.81737 150.331 6.19683C151.868 7.81737 154.941 9.17292 158.493 10.0189L158.605 10.0494L159.521 7.67468L159.389 7.63391C159.389 7.63391 159.002 7.53199 158.402 7.32815C157.506 7.02239 156.152 6.4924 154.941 5.78914C153.791 5.11647 152.784 4.27052 152.417 3.30228H159.022V0.550415H141.629V3.29209H148.244C147.756 4.59667 146.077 5.68722 144.479 6.43125C143.654 6.82874 142.85 7.12431 142.26 7.32815C141.66 7.53199 141.273 7.63391 141.273 7.63391L141.141 7.67468L141.192 7.79699L142.057 10.0494Z" fill="#716353"/>
<path d="M173.342 16.0321V11.9145H179.306C180.802 11.9145 182.013 11.7209 183.072 11.2419V13.3414H178.024V16.1137H183.072V18.57H185.056C185.575 18.57 186.003 18.3967 186.288 18.1011C186.573 17.8056 186.715 17.3877 186.715 16.9189V0H183.072V8.77538C182.247 9.10153 181.158 9.23403 179.825 9.23403H179.255C179.805 8.30655 180.039 6.88985 180.049 5.35084V0.54018H166.544V3.31243H176.395V5.88083C176.395 6.77773 176.283 8.53077 176.11 9.23403H164.732V11.9145H169.434V16.0321H173.342Z" fill="#716353"/>
<path d="M174.126 21.8518C173.841 21.8518 173.617 21.6377 173.617 21.3727V17.3367H169.678V22.1473C169.678 22.8302 169.882 23.4621 170.391 23.9208C170.9 24.3794 171.683 24.6546 172.813 24.6546H186.99V21.8518H174.116H174.126Z" fill="#716353"/>
<path d="M162.442 11.2827H138.23V13.9428H162.442V11.2827Z" fill="#716353"/>
<path d="M155.562 16.6844C154.218 15.706 152.376 15.0945 150.341 15.0945C148.305 15.0945 146.463 15.706 145.12 16.6844C143.776 17.6629 142.942 19.0286 142.942 20.5472C142.942 22.0659 143.776 23.4316 145.12 24.41C146.463 25.3885 148.305 26 150.341 26C152.376 26 154.218 25.3987 155.562 24.41C156.895 23.4316 157.74 22.0659 157.74 20.5472C157.74 19.0286 156.895 17.6629 155.562 16.6844ZM152.977 22.5041C152.305 23.0137 151.379 23.3297 150.341 23.3297C149.303 23.3297 148.377 23.0137 147.705 22.5041C147.033 21.9945 146.626 21.3117 146.626 20.5472C146.626 19.7828 147.033 19.1 147.705 18.5904C148.377 18.0808 149.313 17.775 150.341 17.775C151.369 17.775 152.315 18.091 152.977 18.5904C153.649 19.1 154.056 19.7828 154.056 20.5472C154.056 21.3117 153.649 21.9945 152.977 22.5041Z" fill="#716353"/>
<path d="M133.447 0H129.722V23.8393H131.788C132.307 23.8393 132.724 23.666 133.019 23.3704C133.304 23.0749 133.447 22.657 133.447 22.1882V10.3857H136.815V7.34849H133.447V0Z" fill="#716353"/>
<path d="M84.6152 16.4499H95.1082V24.4099H97.5914C98.1105 24.4099 98.5379 24.2367 98.8229 23.9207C99.1181 23.6048 99.2605 23.1665 99.2605 22.6467V16.4499H109.703V13.5859H84.6152V16.4499Z" fill="#716353"/>
</g>
<defs>
<clipPath id="clip0_392_10865">
<rect width="187" height="26" fill="white"/>
</clipPath>
</defs>
</svg>
