<svg width="188" height="26" viewBox="0 0 188 26" fill="none" xmlns="http://www.w3.org/2000/svg">
<g clip-path="url(#clip0_392_10867)">
<path d="M74.1734 5.70761H76.2082C76.3411 5.70761 76.4434 5.60569 76.4434 5.4732V1.64097C76.4434 1.50848 76.3411 1.39636 76.2082 1.39636H73.3452C70.0424 1.39636 68.2837 2.44615 67.2919 4.6884L61.075 19.8644C60.6966 20.7715 60.1547 21.1996 59.0913 21.1996V1.64097C59.0913 1.50848 58.989 1.39636 58.8561 1.39636H54.2854C54.1525 1.39636 54.04 1.49828 54.04 1.64097V25.0726C54.04 25.307 54.2343 25.4904 54.4695 25.4904H59.5821C62.8848 25.4904 64.3981 24.4407 65.4002 22.1984L71.5353 7.21604C72.0261 6.15606 72.7317 5.68723 74.1734 5.68723" fill="#D20A11"/>
<path d="M18.3746 13.4535C20.2049 12.6993 21.7285 10.9871 21.7285 8.16384C21.7285 3.96471 18.0986 1.40649 13.7324 1.40649H0.235179C0.102252 1.40649 0 1.51861 0 1.6511V5.47313C0 5.60563 0.102252 5.71774 0.235179 5.71774H12.7917C14.8265 5.71774 16.1967 6.95099 16.1967 8.46961C16.1967 9.98823 14.8265 11.2215 12.7917 11.2215H5.33754V8.37788C5.33754 8.24538 5.22506 8.13327 5.09213 8.13327H0.235179C0.102252 8.13327 0 8.23519 0 8.37788V25.2662C0 25.3987 0.102252 25.5006 0.235179 25.5006H13.5381C18.5076 25.5006 22.0761 23.187 22.0761 18.4782C22.0761 16.1646 20.706 14.2485 18.3746 13.4535ZM13.0575 21.3014H5.33754V15.655H13.0575C15.1435 15.655 16.5443 16.9188 16.5443 18.4782C16.5443 20.0376 15.1435 21.3014 13.0575 21.3014Z" fill="#D20A11"/>
<path d="M78.9076 25.2254L71.0751 15.2474C71.0751 15.2474 71.0137 15.2168 71.0035 15.2474L68.8971 20.3842C68.8971 20.3842 68.8869 20.4555 68.8971 20.4759L72.3226 25.0521C72.5577 25.3783 72.844 25.5006 73.2428 25.5006H78.7542C78.9178 25.5006 78.9791 25.3477 78.8871 25.2254" fill="#D20A11"/>
<path d="M30.6447 8.1333H26.074C25.9411 8.1333 25.8286 8.23522 25.8286 8.37791V25.2662C25.8286 25.3987 25.9411 25.5006 26.074 25.5006H30.6447C30.7776 25.5006 30.8901 25.3987 30.8901 25.2662V8.37791C30.8901 8.24541 30.7776 8.1333 30.6447 8.1333Z" fill="#D20A11"/>
<path d="M49.4488 1.40655H44.8781C44.7452 1.40655 44.6429 1.51867 44.6429 1.65116V21.1996C43.5693 21.1996 43.0274 20.7715 42.649 19.8644L36.4423 4.6986C35.4403 2.45634 33.6815 1.40655 30.3788 1.40655H26.074C25.9411 1.40655 25.8286 1.51867 25.8286 1.65116V5.47319C25.8286 5.60569 25.9411 5.70761 26.074 5.70761H29.5506C30.9923 5.70761 31.6979 6.17645 32.1887 7.23642L38.3238 22.2188C39.3258 24.461 40.8392 25.5108 44.1317 25.5108H49.2545C49.4897 25.5108 49.6839 25.3172 49.6839 25.093V1.64097C49.6839 1.50848 49.5715 1.39636 49.4488 1.39636" fill="#D20A11"/>
<path d="M105.176 10.9667C105.575 10.1819 105.82 8.93844 105.871 7.59308V1.36572H88.6932V4.12778H102.109V7.58289C102.109 8.48999 101.986 10.2634 101.822 10.9565H84.9917V13.7185H109.839V10.9565H105.176V10.9667ZM89.2965 22.9627C89.2965 23.6456 89.5112 24.2775 90.0225 24.7362C90.5337 25.1948 91.3211 25.47 92.4561 25.47H102.835C103.959 25.47 104.757 25.1948 105.268 24.7362C105.779 24.2775 105.984 23.6354 105.984 22.9627V16.1442H89.2965V22.9627ZM93.1003 18.8451H102.139V22.2595C102.139 22.5143 101.914 22.7385 101.628 22.7385H93.6013C93.315 22.7385 93.09 22.5245 93.09 22.2595V18.8451H93.1003Z" fill="#716353"/>
<path d="M158.306 1.86511H141.128V4.73928H154.431V13.902C154.431 14.9619 154.277 17.1227 154.011 18.4578H137.426V21.332H162.273V18.4578H157.386C158.112 16.9188 158.306 14.6256 158.306 12.3528V1.86511Z" fill="#716353"/>
<path d="M119.236 9.25441C120.534 10.2329 122.334 10.8342 124.318 10.8342C126.301 10.8342 128.091 10.2329 129.399 9.25441C130.698 8.27597 131.516 6.92042 131.516 5.412C131.516 3.90357 130.698 2.55821 129.399 1.57977C128.091 0.601333 126.301 0 124.318 0C122.334 0 120.534 0.601333 119.236 1.57977C117.927 2.55821 117.109 3.91376 117.119 5.412C117.119 6.92042 117.937 8.27597 119.236 9.25441ZM121.812 3.44492C122.457 2.94551 123.336 2.62956 124.318 2.62956C125.299 2.62956 126.189 2.94551 126.823 3.44492C127.467 3.95453 127.855 4.64759 127.855 5.412C127.855 6.1764 127.467 6.86946 126.823 7.37907C126.189 7.88867 125.299 8.19443 124.318 8.19443C123.336 8.19443 122.446 7.87848 121.812 7.37907C121.178 6.86946 120.79 6.1764 120.79 5.412C120.79 4.64759 121.178 3.95453 121.812 3.44492ZM136.598 14.4626V11.7005H112.047V14.4626H118.602V17.7954C117.763 18.6311 117.272 19.6707 117.272 20.8122C117.272 22.2595 118.07 23.5539 119.348 24.4916C120.626 25.4292 122.385 26 124.328 26C126.271 26 128.029 25.4191 129.307 24.4916C130.586 23.5539 131.393 22.2595 131.393 20.8122C131.393 19.6809 130.892 18.6413 130.064 17.7954V14.4626H136.608H136.598ZM122.324 14.4626H126.311V15.8895C125.678 15.757 125.013 15.6856 124.318 15.6856C123.622 15.6856 122.958 15.757 122.324 15.8895V14.4626ZM126.72 22.6876C126.107 23.187 125.258 23.5029 124.318 23.5029C123.377 23.5029 122.528 23.1972 121.915 22.6876C121.301 22.1882 120.923 21.5053 120.923 20.7511C120.923 19.9969 121.301 19.314 121.915 18.8044C122.528 18.305 123.377 17.9992 124.318 17.9992C125.258 17.9992 126.117 18.305 126.72 18.8044C127.334 19.314 127.712 19.9867 127.712 20.7511C127.712 21.5155 127.344 22.1882 126.72 22.6876Z" fill="#716353"/>
<path d="M188 13.056H163.685V15.5327H173.971V17.8055H177.703V15.5327H188V13.056Z" fill="#716353"/>
<path d="M180.996 25.4802C182.131 25.4802 182.928 25.2051 183.44 24.7464C183.951 24.2878 184.155 23.6457 184.155 22.973V17.0922H180.618V18.6312H171.067V17.0922H167.529V22.973C167.529 23.6559 167.734 24.2878 168.245 24.7464C168.756 25.2051 169.554 25.4802 170.679 25.4802H180.996ZM171.599 22.9322C171.323 22.9322 171.088 22.7182 171.088 22.4532V20.9855H180.597V22.4532C180.597 22.708 180.362 22.9322 180.086 22.9322H171.599Z" fill="#716353"/>
<path d="M171.957 9.28497C171.67 9.28497 171.435 9.07094 171.435 8.79575V7.76635H183.828V1.36572H167.529V3.81182H179.953V5.32025H167.529V9.36651C167.529 10.0698 167.734 10.7119 168.255 11.1807C168.777 11.6495 169.585 11.9349 170.73 11.9349H184.145V9.29516H171.947L171.957 9.28497Z" fill="#716353"/>
</g>
<defs>
<clipPath id="clip0_392_10867">
<rect width="188" height="26" fill="white"/>
</clipPath>
</defs>
</svg>
