<svg width="188" height="26" viewBox="0 0 188 26" fill="none" xmlns="http://www.w3.org/2000/svg">
<g clip-path="url(#clip0_392_10860)">
<path d="M181.15 16.73C179.81 15.81 177.98 15.26 175.96 15.26C173.94 15.26 172.1 15.81 170.76 16.73C169.43 17.65 168.59 18.93 168.59 20.36C168.59 23.23 171.9 25.51 175.95 25.51C180 25.51 183.31 23.23 183.31 20.36C183.31 18.92 182.47 17.64 181.14 16.73M178.6 22.18C177.93 22.66 176.99 22.95 175.96 22.95C174.93 22.95 173.99 22.65 173.32 22.18C172.65 21.71 172.25 21.07 172.25 20.36C172.25 19.65 172.65 19.01 173.32 18.54C173.99 18.07 174.93 17.77 175.96 17.77C176.99 17.77 177.93 18.07 178.6 18.54C179.27 19.02 179.67 19.66 179.67 20.36C179.67 21.06 179.27 21.7 178.6 22.18Z" fill="#716353"/>
<path d="M180.97 12.08V9.43001C182.41 8.49002 183.33 7.13001 183.33 5.61001C183.33 2.70001 180.01 0.390015 175.97 0.390015C171.93 0.390015 168.61 2.70001 168.6 5.61001C168.6 7.13001 169.52 8.49002 170.96 9.43001V12.08H164.26V14.71H187.67V12.08H180.97ZM177.68 12.08H174.23V10.68C174.78 10.77 175.36 10.82 175.96 10.82C176.56 10.82 177.13 10.77 177.68 10.68V12.08ZM178.63 7.63001C177.95 8.13001 177.01 8.45001 175.97 8.45001C174.93 8.45001 173.98 8.13001 173.3 7.63001C172.62 7.13001 172.22 6.44001 172.22 5.69001C172.22 4.94001 172.62 4.25001 173.3 3.75001C173.98 3.25001 174.92 2.93001 175.97 2.93001C177.02 2.93001 177.96 3.25001 178.63 3.75001C179.31 4.25001 179.72 4.93001 179.72 5.69001C179.72 6.45002 179.31 7.12002 178.63 7.63001Z" fill="#716353"/>
<path d="M95.48 5.83002V4.95002H100V2.27002H87.33V4.95002H91.85V5.83002C91.85 9.95002 88.91 13.38 86.3 15.5L86.21 15.57L87.81 17.68L87.91 17.63C90.19 16.48 92.8 13.38 93.67 11.52C94.54 13.38 97.15 16.48 99.43 17.63L99.53 17.68L101.13 15.57L101.05 15.5C98.44 13.37 95.49 9.95002 95.49 5.83002" fill="#716353"/>
<path d="M107.09 0.810059H103.48V23.8501H105.48C105.98 23.8501 106.39 23.6801 106.67 23.4001C106.95 23.1101 107.09 22.7101 107.09 22.2601V10.8601H110.34V7.93006H107.09V0.810059Z" fill="#716353"/>
<path d="M152.12 14.78H148.51V19.71H150.51C151.01 19.71 151.42 19.54 151.7 19.26C151.98 18.97 152.12 18.57 152.12 18.12V14.78Z" fill="#716353"/>
<path d="M75.9201 5.50999H78.0001C78.1401 5.50999 78.2501 5.40999 78.2501 5.27999V1.58999C78.2501 1.45999 78.1401 1.35999 78.0001 1.35999H75.0801C71.7001 1.35999 69.9001 2.37999 68.8801 4.53999L62.5201 19.2C62.1301 20.08 61.5801 20.49 60.4801 20.49V1.58999C60.4801 1.45999 60.3701 1.35999 60.2301 1.35999H55.5601C55.4201 1.35999 55.3101 1.45999 55.3101 1.58999V24.24C55.3101 24.47 55.5101 24.65 55.7501 24.65H60.9901C64.3701 24.65 65.9201 23.64 66.9401 21.47L73.2201 6.99999C73.7201 5.96999 74.4501 5.51999 75.9201 5.51999" fill="#D20A11"/>
<path d="M18.81 13C20.68 12.27 22.24 10.62 22.24 7.88998C22.24 3.81998 18.53 1.34998 14.06 1.34998H0.24C0.1 1.34998 0 1.44998 0 1.57998V5.27998C0 5.40998 0.11 5.50998 0.24 5.50998H13.09C15.17 5.50998 16.57 6.70998 16.57 8.16998C16.57 9.62998 15.17 10.84 13.09 10.84H5.45V8.09998C5.45 7.96998 5.34 7.86998 5.2 7.86998H0.24C0.1 7.86998 0 7.96998 0 8.09998V24.42C0 24.55 0.11 24.65 0.24 24.65H13.86C18.95 24.65 22.59 22.41 22.59 17.86C22.59 15.62 21.19 13.77 18.81 13ZM13.37 20.59H5.47V15.13H13.37C15.5 15.13 16.94 16.35 16.94 17.86C16.94 19.37 15.5 20.59 13.37 20.59Z" fill="#D20A11"/>
<path d="M80.7601 24.38L72.7501 14.74C72.7501 14.74 72.6901 14.72 72.6801 14.74L70.5201 19.7C70.5201 19.7 70.5101 19.77 70.5301 19.79L74.0301 24.21C74.2801 24.52 74.5601 24.64 74.9801 24.64H80.6201C80.7901 24.64 80.8501 24.5 80.7601 24.37" fill="#D20A11"/>
<path d="M31.3702 7.85999H26.6902C26.5602 7.85999 26.4502 7.95999 26.4502 8.08999V24.41C26.4502 24.54 26.5602 24.64 26.6902 24.64H31.3702C31.5102 24.64 31.6202 24.54 31.6202 24.41V8.09999C31.6202 7.96999 31.5102 7.86999 31.3702 7.86999" fill="#D20A11"/>
<path d="M50.6099 1.34998H45.9299C45.7899 1.34998 45.6899 1.44998 45.6899 1.57998V20.48C44.5899 20.48 44.0399 20.07 43.6499 19.19L37.2899 4.52998C36.2699 2.36998 34.4699 1.34998 31.0899 1.34998H26.6799C26.5499 1.34998 26.4399 1.44998 26.4399 1.57998V5.27998C26.4399 5.40998 26.5499 5.50998 26.6799 5.50998H30.2399C31.7199 5.50998 32.4399 5.95998 32.9499 6.98998L39.2199 21.46C40.2399 23.62 41.7899 24.64 45.1699 24.64H50.4099C50.6499 24.64 50.8399 24.46 50.8399 24.23V1.58998C50.8399 1.45998 50.7299 1.35998 50.5999 1.35998" fill="#D20A11"/>
<path d="M120.93 21.42V16.23H117.08V22.17C117.08 23.49 117.94 24.59 120.12 24.59H133.23V21.88H121.42C121.15 21.88 120.93 21.67 120.93 21.42Z" fill="#716353"/>
<path d="M132.67 0.469971H129.06V16.95H131.21C132.13 16.95 132.67 16.32 132.67 15.5V8.23997H135.95V5.18997H132.67V0.469971Z" fill="#716353"/>
<path d="M125.16 13.83L125.25 13.87L126.86 11.75L126.7 11.64C123.69 9.62998 121.35 6.78998 121.35 3.30998V0.97998H117.44V3.29998C117.44 6.92998 114.59 10.32 112.03 11.94L111.92 12.01L113.53 14.13L113.63 14.08C115.64 13.09 118.31 10.4 119.39 8.40998C120.42 10.27 122.99 12.77 125.14 13.82" fill="#716353"/>
<path d="M144.63 9.51001C145.93 10.51 147.72 11.13 149.7 11.13C151.68 11.13 153.47 10.51 154.77 9.51001C156.07 8.51001 156.88 7.11001 156.88 5.57001C156.88 4.03001 156.07 2.63001 154.77 1.63001C153.47 0.62001 151.67 0.0100098 149.7 0.0100098C147.73 0.0100098 145.93 0.63001 144.63 1.63001C143.33 2.63001 142.52 4.03001 142.52 5.57001C142.52 7.11001 143.33 8.51001 144.63 9.51001ZM147.11 3.53001C147.77 3.00001 148.68 2.68001 149.69 2.68001C150.7 2.68001 151.62 3.00001 152.27 3.53001C152.93 4.06001 153.33 4.77001 153.33 5.57001C153.33 6.37001 152.93 7.08001 152.27 7.60001C151.62 8.13001 150.7 8.46001 149.69 8.46001C148.68 8.46001 147.77 8.13001 147.11 7.60001C146.45 7.08001 146.05 6.36001 146.05 5.57001C146.05 4.78001 146.45 4.06001 147.11 3.53001Z" fill="#716353"/>
<path d="M161.38 12.86H138.01V15.58H161.38V12.86Z" fill="#716353"/>
<path d="M145.53 21.47V17.47H141.73V22.22C141.73 22.88 141.93 23.5 142.42 23.94C142.91 24.38 143.68 24.65 144.77 24.65H158.87V21.93H146.02C145.75 21.93 145.54 21.72 145.54 21.47" fill="#716353"/>
</g>
<defs>
<clipPath id="clip0_392_10860">
<rect width="187.66" height="25.51" fill="white"/>
</clipPath>
</defs>
</svg>
