<svg width="188" height="26" viewBox="0 0 188 26" fill="none" xmlns="http://www.w3.org/2000/svg">
<g clip-path="url(#clip0_392_10866)">
<path d="M122.027 22.2187V16.8577H118.021V22.9933C118.021 24.3693 118.923 25.5006 121.187 25.5108H134.824V22.708H122.54C122.253 22.708 122.027 22.4939 122.027 22.2289M177.836 9.18307C177.836 7.5931 177.099 6.15602 175.849 5.21835H178.103V2.71109H173.974V0.529988H170.121V2.72129H165.951V5.22854H168.267C167.006 6.1764 166.269 7.60329 166.269 9.19326C166.269 12.047 168.81 14.3403 172.047 14.3403C175.244 14.3403 177.836 12.0368 177.836 9.19326M172.047 11.8534C170.429 11.8534 169.353 10.6507 169.353 9.13211C169.353 7.62368 170.429 6.42101 172.047 6.42101C173.666 6.42101 174.752 7.62368 174.763 9.13211C174.763 10.6507 173.676 11.8534 172.047 11.8534ZM147.519 22.2187V18.0706H143.564V22.9831C143.564 24.3591 144.455 25.4904 146.73 25.5006H161.392V22.6978H148.031C147.755 22.6978 147.519 22.4837 147.519 22.2187ZM139.701 16.1137H164.004V13.3007H139.701V16.1137ZM151.853 11.5069C155.961 11.5069 159.322 8.94865 159.332 5.74833C159.332 2.54802 155.961 0 151.853 0C147.744 0 144.384 2.55821 144.373 5.74833C144.373 8.94865 147.744 11.4967 151.853 11.5069ZM151.853 2.76205C153.964 2.76205 155.634 4.1176 155.644 5.74833C155.644 7.38926 153.964 8.74481 151.853 8.74481C149.742 8.74481 148.062 7.38926 148.062 5.74833C148.062 4.1176 149.742 2.77225 151.853 2.76205ZM184.578 0.529988V5.29988H182.908V0.529988H179.496V13.2905H181.443C182.375 13.2905 182.918 12.6586 182.918 11.8432V8.31674H184.588V13.2905H186.535C187.467 13.2905 188.01 12.6586 188.01 11.8432V0.529988H184.588H184.578ZM180.305 14.3606C176.258 14.3606 172.969 16.9494 172.969 20.1803C172.969 23.4214 176.269 25.9898 180.305 26C184.353 25.9898 187.641 23.4112 187.641 20.1803C187.641 16.9494 184.342 14.3708 180.305 14.3606ZM180.305 23.1972C178.297 23.1972 176.689 21.8314 176.689 20.1803C176.689 18.5292 178.297 17.1635 180.305 17.1635C182.314 17.1635 183.922 18.5292 183.922 20.1803C183.922 21.8416 182.314 23.1972 180.305 23.1972ZM134.251 0.529988H130.48V17.5915H132.724C133.687 17.5915 134.251 16.9392 134.251 16.0933V8.58173H137.663V5.42219H134.251V0.529988ZM92.9191 11.7413H103.944C106.208 11.7413 107.099 10.5998 107.099 9.23403V0.529988H103.493V2.99647H93.3495V0.529988H89.7532V9.23403C89.7532 10.61 90.6446 11.7413 92.9191 11.7413ZM93.3802 5.72795H103.462V8.51039C103.462 8.77538 103.237 8.98942 102.95 8.98942H93.8822C93.6056 8.98942 93.3802 8.77538 93.3802 8.51039V5.72795ZM85.1528 17.1329H96.3207V25.1948H98.7695C99.8043 25.1948 100.409 24.4916 100.409 23.4724V17.1431H110.788V14.2893H85.1528V17.1431V17.1329ZM126.433 14.3606L126.525 14.4116L128.206 12.2101L128.042 12.098C124.906 10.0188 122.468 7.07331 122.478 3.4755V1.07017H118.411V3.4755C118.411 7.23638 115.45 10.7425 112.786 12.414L112.673 12.4853L114.353 14.6868L114.456 14.6358C116.546 13.5962 119.323 10.8138 120.45 8.76519C121.525 10.6915 124.2 13.2803 126.443 14.3606" fill="#716353"/>
<path d="M74.3434 5.67704H76.3823C76.5155 5.67704 76.618 5.56492 76.618 5.43243V1.62059C76.618 1.48809 76.5155 1.37598 76.3823 1.37598H73.5237C70.2143 1.37598 68.4521 2.42576 67.448 4.66802L61.2185 19.8338C60.8394 20.7409 60.2964 21.169 59.2206 21.169V1.62059C59.2206 1.48809 59.1182 1.37598 58.985 1.37598H54.4153C54.2821 1.37598 54.1694 1.4779 54.1694 1.62059V25.0522C54.1694 25.2866 54.3641 25.4701 54.5895 25.4701H59.7227C63.032 25.4701 64.5484 24.4203 65.5525 22.178L71.7 7.19566C72.1918 6.13568 72.8987 5.66684 74.3434 5.66684" fill="#D20A11"/>
<path d="M18.4219 13.423C20.2559 12.6688 21.7825 10.9667 21.7825 8.13333C21.7825 3.924 18.1453 1.37598 13.7703 1.37598H0.245899C0.112704 1.37598 0 1.4779 0 1.62059V5.44262C0 5.57511 0.112704 5.68723 0.245899 5.68723H12.8277C14.8666 5.68723 16.2293 6.92047 16.2293 8.43909C16.2293 9.95771 14.8564 11.191 12.8277 11.191H5.35855V8.34736C5.35855 8.21486 5.24584 8.10275 5.11265 8.10275H0.245899C0.112704 8.10275 0 8.20467 0 8.34736V25.2458C0 25.3783 0.112704 25.4802 0.245899 25.4802H13.5757C18.5551 25.4802 22.1309 23.1666 22.1309 18.4579C22.1309 16.1443 20.758 14.2282 18.4219 13.4332M13.0839 21.2709H5.3483V15.6245H13.0839C15.174 15.6245 16.5777 16.8883 16.5777 18.4477C16.5777 20.0071 15.1638 21.2709 13.0839 21.2709Z" fill="#D20A11"/>
<path d="M79.0772 25.205L71.2289 15.227C71.2289 15.227 71.1674 15.1964 71.1572 15.227L69.0465 20.3638C69.0465 20.3638 69.0363 20.4351 69.0465 20.4555L72.4789 25.0216C72.7145 25.3477 73.0014 25.47 73.401 25.47H78.9337C79.0874 25.47 79.1591 25.3171 79.0567 25.1948" fill="#D20A11"/>
<path d="M30.7169 8.10266H26.137C26.0038 8.10266 25.8911 8.20458 25.8911 8.34727V25.2356C25.8911 25.368 25.9936 25.47 26.137 25.47H30.7169C30.8398 25.47 30.9525 25.368 30.9525 25.2356V8.34727C30.9525 8.21477 30.8398 8.10266 30.7169 8.10266Z" fill="#D20A11"/>
<path d="M49.5589 1.37591H44.979C44.8458 1.37591 44.7331 1.47784 44.7331 1.62052V21.1689C43.6675 21.1689 43.1143 20.7409 42.7352 19.8338L36.516 4.65777C35.5119 2.41551 33.7496 1.36572 30.4402 1.36572H26.1268C25.9936 1.36572 25.8809 1.46764 25.8809 1.61033V5.43236C25.8809 5.56486 25.9833 5.66678 26.1268 5.66678H29.6103C31.055 5.66678 31.7619 6.13562 32.2537 7.19559L38.4012 22.178C39.4053 24.4202 40.9114 25.47 44.2311 25.47H49.3642C49.5999 25.47 49.7945 25.2763 49.7945 25.0521V1.61033C49.7945 1.47784 49.6818 1.36572 49.5486 1.36572" fill="#D20A11"/>
</g>
<defs>
<clipPath id="clip0_392_10866">
<rect width="188" height="26" fill="white"/>
</clipPath>
</defs>
</svg>
