<svg width="24" height="24" viewBox="0 0 24 24" fill="none" xmlns="http://www.w3.org/2000/svg">
<path d="M17 12V16C17 16.2652 16.8946 16.5196 16.7071 16.7071C16.5196 16.8946 16.2652 17 16 17H12" stroke="url(#paint0_linear_392_10872)" stroke-width="1.8" stroke-linecap="round" stroke-linejoin="round"/>
<path d="M17 3H19C19.5304 3 20.0391 3.21071 20.4142 3.58579C20.7893 3.96086 21 4.46957 21 5V7" stroke="url(#paint1_linear_392_10872)" stroke-width="1.8" stroke-linecap="round" stroke-linejoin="round"/>
<path d="M17 8V7" stroke="url(#paint2_linear_392_10872)" stroke-width="1.8" stroke-linecap="round" stroke-linejoin="round"/>
<path d="M21 17V19C21 19.5304 20.7893 20.0391 20.4142 20.4142C20.0391 20.7893 19.5304 21 19 21H17" stroke="url(#paint3_linear_392_10872)" stroke-width="1.8" stroke-linecap="round" stroke-linejoin="round"/>
<path d="M3 7V5C3 4.46957 3.21071 3.96086 3.58579 3.58579C3.96086 3.21071 4.46957 3 5 3H7" stroke="url(#paint4_linear_392_10872)" stroke-width="1.8" stroke-linecap="round" stroke-linejoin="round"/>
<path d="M7 17H7.01" stroke="url(#paint5_linear_392_10872)" stroke-width="1.8" stroke-linecap="round" stroke-linejoin="round"/>
<path d="M7 21H5C4.46957 21 3.96086 20.7893 3.58579 20.4142C3.21071 20.0391 3 19.5304 3 19V17" stroke="url(#paint6_linear_392_10872)" stroke-width="1.8" stroke-linecap="round" stroke-linejoin="round"/>
<path d="M11 7H8C7.44772 7 7 7.44772 7 8V11C7 11.5523 7.44772 12 8 12H11C11.5523 12 12 11.5523 12 11V8C12 7.44772 11.5523 7 11 7Z" stroke="url(#paint7_linear_392_10872)" stroke-width="1.8" stroke-linecap="round" stroke-linejoin="round"/>
<defs>
<linearGradient id="paint0_linear_392_10872" x1="14.5" y1="12" x2="14.5" y2="17" gradientUnits="userSpaceOnUse">
<stop stop-color="#F0136C"/>
<stop offset="1" stop-color="#FE6605"/>
</linearGradient>
<linearGradient id="paint1_linear_392_10872" x1="19" y1="3" x2="19" y2="7" gradientUnits="userSpaceOnUse">
<stop stop-color="#F0136C"/>
<stop offset="1" stop-color="#FE6605"/>
</linearGradient>
<linearGradient id="paint2_linear_392_10872" x1="17.5" y1="7" x2="17.5" y2="8" gradientUnits="userSpaceOnUse">
<stop stop-color="#F0136C"/>
<stop offset="1" stop-color="#FE6605"/>
</linearGradient>
<linearGradient id="paint3_linear_392_10872" x1="19" y1="17" x2="19" y2="21" gradientUnits="userSpaceOnUse">
<stop stop-color="#F0136C"/>
<stop offset="1" stop-color="#FE6605"/>
</linearGradient>
<linearGradient id="paint4_linear_392_10872" x1="5" y1="3" x2="5" y2="7" gradientUnits="userSpaceOnUse">
<stop stop-color="#F0136C"/>
<stop offset="1" stop-color="#FE6605"/>
</linearGradient>
<linearGradient id="paint5_linear_392_10872" x1="7.005" y1="17" x2="7.005" y2="18" gradientUnits="userSpaceOnUse">
<stop stop-color="#F0136C"/>
<stop offset="1" stop-color="#FE6605"/>
</linearGradient>
<linearGradient id="paint6_linear_392_10872" x1="5" y1="17" x2="5" y2="21" gradientUnits="userSpaceOnUse">
<stop stop-color="#F0136C"/>
<stop offset="1" stop-color="#FE6605"/>
</linearGradient>
<linearGradient id="paint7_linear_392_10872" x1="9.5" y1="7" x2="9.5" y2="12" gradientUnits="userSpaceOnUse">
<stop stop-color="#F0136C"/>
<stop offset="1" stop-color="#FE6605"/>
</linearGradient>
</defs>
</svg>
