<svg width="60" height="18" viewBox="0 0 60 18" fill="none" xmlns="http://www.w3.org/2000/svg">
<path d="M3.51562 16.9688H0V0H3.51562V16.9688ZM12.0469 17.2148C10.7656 17.2148 9.65234 16.9375 8.70703 16.3828C7.76172 15.8281 7.03906 15.0547 6.53906 14.0625C6.03906 13.0703 5.78906 11.9336 5.78906 10.6523C5.78906 9.35547 6.04297 8.21094 6.55078 7.21875C7.05859 6.22656 7.78125 5.45703 8.71875 4.91016C9.65625 4.35547 10.7578 4.07812 12.0234 4.07812C13.1172 4.07812 14.082 4.27734 14.918 4.67578C15.7617 5.06641 16.4219 5.62891 16.8984 6.36328C17.3828 7.09766 17.6484 7.94531 17.6953 8.90625H14.4141C14.3516 8.48438 14.2188 8.11328 14.0156 7.79297C13.8125 7.46484 13.5469 7.21484 13.2188 7.04297C12.8906 6.86328 12.5117 6.77344 12.082 6.77344C11.5273 6.77344 11.043 6.92578 10.6289 7.23047C10.2148 7.52734 9.89062 7.96094 9.65625 8.53125C9.42188 9.10156 9.30469 9.78906 9.30469 10.5938C9.30469 11.4062 9.41797 12.1016 9.64453 12.6797C9.87891 13.25 10.2031 13.6875 10.6172 13.9922C11.0312 14.2969 11.5195 14.4492 12.082 14.4492C12.4961 14.4492 12.8672 14.3711 13.1953 14.2148C13.5234 14.0508 13.793 13.8086 14.0039 13.4883C14.2148 13.168 14.3516 12.7852 14.4141 12.3398H17.6953C17.6406 13.3008 17.375 14.1484 16.8984 14.8828C16.4297 15.6172 15.7773 16.1914 14.9414 16.6055C14.1133 17.0117 13.1484 17.2148 12.0469 17.2148ZM25.5703 17.2148C24.3047 17.2148 23.1992 16.9414 22.2539 16.3945C21.3086 15.8477 20.582 15.0781 20.0742 14.0859C19.5664 13.0938 19.3125 11.9492 19.3125 10.6523C19.3125 9.33984 19.5664 8.19141 20.0742 7.20703C20.582 6.21484 21.3086 5.44531 22.2539 4.89844C23.1992 4.35156 24.3047 4.07812 25.5703 4.07812C26.8281 4.07812 27.9297 4.35156 28.875 4.89844C29.8281 5.44531 30.5547 6.21484 31.0547 7.20703C31.5547 8.19141 31.8047 9.33984 31.8047 10.6523C31.8047 11.9492 31.5547 13.0938 31.0547 14.0859C30.5547 15.0781 29.8281 15.8477 28.875 16.3945C27.9297 16.9414 26.8281 17.2148 25.5703 17.2148ZM25.5938 14.5312C26.1719 14.5312 26.6602 14.3633 27.0586 14.0273C27.4648 13.6914 27.7695 13.2305 27.9727 12.6445C28.1758 12.0508 28.2773 11.3789 28.2773 10.6289C28.2773 9.87109 28.1758 9.19922 27.9727 8.61328C27.7695 8.02734 27.4648 7.56641 27.0586 7.23047C26.6602 6.89453 26.1719 6.72656 25.5938 6.72656C25 6.72656 24.4961 6.89453 24.082 7.23047C23.668 7.56641 23.3555 8.02734 23.1445 8.61328C22.9336 9.19141 22.8281 9.86328 22.8281 10.6289C22.8281 11.3867 22.9336 12.0586 23.1445 12.6445C23.3555 13.2305 23.668 13.6914 24.082 14.0273C24.4961 14.3633 25 14.5312 25.5938 14.5312ZM37.4648 16.9688H33.9961V4.24219H37.3008V6.46875H37.4414C37.7383 5.71875 38.2148 5.13281 38.8711 4.71094C39.5352 4.28906 40.3359 4.07812 41.2734 4.07812C42.1562 4.07812 42.9258 4.26953 43.582 4.65234C44.2383 5.03516 44.7461 5.58594 45.1055 6.30469C45.4727 7.02344 45.6562 7.875 45.6562 8.85938V16.9688H42.1875V9.45703C42.1875 8.93359 42.0977 8.48828 41.918 8.12109C41.7461 7.74609 41.4883 7.46094 41.1445 7.26562C40.8008 7.0625 40.3867 6.96094 39.9023 6.96094C39.418 6.96094 38.9922 7.06641 38.625 7.27734C38.2578 7.48047 37.9727 7.78125 37.7695 8.17969C37.5664 8.57031 37.4648 9.04297 37.4648 9.59766V16.9688ZM55.6055 8.02734C55.5273 7.55859 55.3047 7.19531 54.9375 6.9375C54.5703 6.67969 54.0977 6.55078 53.5195 6.55078C53.1445 6.55078 52.8086 6.60547 52.5117 6.71484C52.2148 6.81641 51.9766 6.96875 51.7969 7.17188C51.625 7.36719 51.5391 7.58984 51.5391 7.83984C51.5312 8.13672 51.6562 8.39453 51.9141 8.61328C52.1797 8.83203 52.6016 9 53.1797 9.11719L55.4766 9.58594C56.7109 9.83594 57.6289 10.2461 58.2305 10.8164C58.8398 11.3789 59.1445 12.1172 59.1445 13.0312C59.1445 13.8594 58.9062 14.5898 58.4297 15.2227C57.9609 15.8477 57.3008 16.3359 56.4492 16.6875C55.6055 17.0391 54.6211 17.2148 53.4961 17.2148C52.3633 17.2148 51.3828 17.0547 50.5547 16.7344C49.7344 16.4062 49.0859 15.9453 48.6094 15.3516C48.1328 14.75 47.8477 14.0352 47.7539 13.207H51.2344C51.3359 13.6914 51.5781 14.0625 51.9609 14.3203C52.3516 14.5703 52.8672 14.6953 53.5078 14.6953C53.9219 14.6953 54.2852 14.6445 54.5977 14.543C54.918 14.4414 55.1641 14.293 55.3359 14.0977C55.5156 13.8945 55.6055 13.6602 55.6055 13.3945C55.6055 13.0508 55.4648 12.7734 55.1836 12.5625C54.9102 12.3516 54.4766 12.1875 53.8828 12.0703L51.7734 11.6484C50.5547 11.4062 49.6328 10.9805 49.0078 10.3711C48.3906 9.76172 48.0859 8.98828 48.0938 8.05078C48.0938 7.23828 48.3125 6.53516 48.75 5.94141C49.1875 5.33984 49.8086 4.87891 50.6133 4.55859C51.4258 4.23828 52.3789 4.07812 53.4727 4.07812C54.5352 4.07812 55.4609 4.23828 56.25 4.55859C57.0391 4.87891 57.6562 5.33594 58.1016 5.92969C58.5469 6.52344 58.7969 7.22266 58.8516 8.02734H55.6055Z" fill="#2F77FF"/>
</svg>
