<svg width="32" height="19" viewBox="0 0 32 19" fill="none" xmlns="http://www.w3.org/2000/svg">
<path d="M9.71484 11.3203L11.2734 13.3242L12.7383 15.0352L15.5742 18.6094H12.2695L10.3125 16.1953L9.33984 14.8125L6.70312 11.3203H9.71484ZM15.8438 8.71875C15.8438 10.5156 15.5 12.0742 14.8125 13.3945C14.1328 14.707 13.1914 15.7109 11.9883 16.4062C10.793 17.0938 9.4375 17.4375 7.92188 17.4375C6.40625 17.4375 5.04688 17.0938 3.84375 16.4062C2.64844 15.7109 1.70703 14.7031 1.01953 13.3828C0.339844 12.0625 0 10.5078 0 8.71875C0 6.90625 0.339844 5.34375 1.01953 4.03125C1.70703 2.71875 2.64844 1.71875 3.84375 1.03125C5.04688 0.34375 6.40625 0 7.92188 0C9.4375 0 10.793 0.34375 11.9883 1.03125C13.1914 1.71875 14.1328 2.71875 14.8125 4.03125C15.5 5.34375 15.8438 6.90625 15.8438 8.71875ZM12.2812 8.71875C12.2812 7.52344 12.1016 6.50781 11.7422 5.67188C11.3906 4.83594 10.8867 4.20312 10.2305 3.77344C9.58203 3.33594 8.8125 3.11719 7.92188 3.11719C7.03906 3.11719 6.26953 3.33594 5.61328 3.77344C4.96484 4.20312 4.46094 4.83594 4.10156 5.67188C3.74219 6.50781 3.5625 7.52344 3.5625 8.71875C3.5625 9.91406 3.74219 10.9297 4.10156 11.7656C4.46094 12.6016 4.96484 13.2383 5.61328 13.6758C6.26953 14.1055 7.03906 14.3203 7.92188 14.3203C8.8125 14.3203 9.58203 14.1055 10.2305 13.6758C10.8867 13.2383 11.3906 12.6016 11.7422 11.7656C12.1016 10.9297 12.2812 9.91406 12.2812 8.71875ZM18.4219 0.234375H25.0547C26.3359 0.234375 27.4297 0.460937 28.3359 0.914062C29.25 1.35938 29.9453 2 30.4219 2.83594C30.8984 3.67188 31.1367 4.64844 31.1367 5.76562C31.1367 6.875 30.8945 7.83984 30.4102 8.66016C29.9336 9.47266 29.2305 10.0977 28.3008 10.5352C27.3711 10.9648 26.2617 11.1797 24.9727 11.1797H20.4844V8.30859H24.4219C25.125 8.30859 25.7031 8.21484 26.1562 8.02734C26.6094 7.83203 26.9492 7.54688 27.1758 7.17188C27.4023 6.79688 27.5156 6.32812 27.5156 5.76562C27.5156 5.1875 27.4023 4.70312 27.1758 4.3125C26.9492 3.92188 26.6055 3.62891 26.1445 3.43359C25.6836 3.23047 25.1055 3.12891 24.4102 3.12891H21.9375V17.2031H18.4219V0.234375ZM31.7461 17.2031H27.832L23.7188 9.49219H27.5273L31.7461 17.2031Z" fill="#2F77FF"/>
</svg>
