<svg width="73" height="40" viewBox="0 0 73 40" fill="none" xmlns="http://www.w3.org/2000/svg">
<g clip-path="url(#clip0_684_3693)">
<path d="M26.1814 37.3046V33.4803H23.3351V37.855C23.3351 38.8287 23.9708 39.6472 25.5811 39.6472H35.264V37.6504H26.5416C26.3438 37.6504 26.1814 37.5022 26.1814 37.3117M65.789 28.0191C65.789 26.8831 65.2663 25.8599 64.3764 25.1896H65.9797V23.4115H63.0487V21.8522H60.3154V23.4115H57.3561V25.1896H58.9947C58.1048 25.867 57.5821 26.8831 57.5821 28.0191C57.5821 30.0512 59.3831 31.6881 61.6856 31.6881C63.9527 31.6881 65.789 30.0512 65.789 28.0191ZM61.6856 29.9171C60.5343 29.9171 59.7716 29.0633 59.7716 27.9767C59.7716 26.8972 60.5414 26.0434 61.6856 26.0434C62.8297 26.0434 63.5996 26.8972 63.6066 27.9767C63.6066 29.0633 62.8368 29.9171 61.6856 29.9171ZM44.269 37.3046V34.3482H41.458V37.855C41.458 38.8287 42.0937 39.6472 43.7039 39.6472H54.1073V37.6504H44.6292C44.4314 37.6504 44.269 37.5022 44.269 37.3117M38.7177 32.9582H55.9648V30.9543H38.7177V32.9582ZM47.3412 29.6701C50.2581 29.6701 52.6453 27.8497 52.6524 25.5636C52.6524 23.2845 50.2581 21.4641 47.3412 21.4641C44.4243 21.4641 42.0372 23.2845 42.0372 25.5636C42.0372 27.8497 44.4243 29.6631 47.3412 29.6701ZM47.3412 23.4398C48.8385 23.4398 50.0251 24.3994 50.0321 25.5636C50.0321 26.7278 48.8385 27.6945 47.3412 27.6945C45.8439 27.6945 44.6503 26.7278 44.6503 25.5636C44.6503 24.3994 45.8439 23.4398 47.3412 23.4398ZM70.5704 21.8451V25.2461H69.3839V21.8451H66.9614V30.9402H68.3386C68.9955 30.9402 69.3839 30.4886 69.3839 29.91V27.3911H70.5704V30.9332H71.9547C72.6115 30.9332 73 30.4816 73 29.903V21.8381H70.5704V21.8451ZM67.5405 31.7022C64.666 31.7022 62.3283 33.5438 62.3283 35.8511C62.3283 38.1584 64.666 39.9929 67.5405 40C70.408 40 72.7457 38.1514 72.7457 35.8511C72.7457 33.5509 70.4009 31.7022 67.5405 31.7022ZM67.5405 38.0032C66.1139 38.0032 64.9768 37.0295 64.9768 35.8511C64.9768 34.6728 66.1139 33.6991 67.5405 33.6991C68.9601 33.6991 70.1043 34.6728 70.1114 35.8511C70.1114 37.0295 68.9672 38.0032 67.5405 38.0032ZM34.8473 21.8451H32.1776V34.0095H33.7667C34.4518 34.0095 34.8473 33.5509 34.8473 32.9441V27.5886H37.2698V25.3449H34.8473V21.8522V21.8451ZM5.51596 29.8395H13.3414C14.9517 29.8395 15.5803 29.0281 15.5874 28.0473V21.8381H13.0307V23.6021H5.82672V21.8381H3.27709V28.0473C3.27709 29.0281 3.90567 29.8395 5.51596 29.8395ZM5.84085 25.5495H12.9954V27.5322C12.9954 27.7227 12.8329 27.8709 12.6352 27.8709H6.19398C5.99623 27.8709 5.83378 27.7157 5.83378 27.5322V25.5495H5.84085ZM0 33.6779H7.92434V39.4214H9.66176C10.4033 39.4214 10.8271 38.9204 10.8271 38.1937V33.6779H18.1935V31.6458H0V33.6779ZM29.3031 31.7022L29.3667 31.7375L30.5603 30.1641L30.4402 30.0864C28.2155 28.6047 26.4851 26.5091 26.4922 23.9407V22.2262H23.6035V23.9407C23.6035 26.622 21.5059 29.1198 19.6131 30.3122L19.5354 30.3616L20.729 31.928L20.7996 31.8928C22.2828 31.1519 24.2533 29.1692 25.0584 27.7086C25.8141 29.0774 27.7211 30.9261 29.3102 31.7022" fill="#716353"/>
<path d="M63.084 3.06932H64.5318C64.6237 3.06932 64.7013 2.99171 64.7013 2.89998V0.169342C64.7013 0.0776151 64.6237 0 64.5318 0H62.4978C60.1459 0 58.9029 0.754983 58.1895 2.34962L53.7683 13.1663C53.4999 13.8084 53.1185 14.1189 52.3558 14.1189V0.169342C52.3558 0.0776151 52.2781 0 52.1863 0H48.9374C48.8385 0 48.7679 0.0776151 48.7679 0.169342V16.8778C48.7679 17.04 48.9021 17.1812 49.0716 17.1812H52.7089C55.0608 17.1812 56.1343 16.4262 56.8406 14.8315L61.2053 4.14888C61.5585 3.3939 62.0599 3.06227 63.084 3.06227" fill="#D20A11"/>
<path d="M23.3916 8.59411C24.6982 8.05786 25.7788 6.84424 25.7788 4.81919C25.7788 1.82043 23.2009 0 20.0934 0H10.4881C10.3963 0 10.3186 0.0776151 10.3186 0.169342V2.89293C10.3186 2.98465 10.3963 3.06227 10.4881 3.06227H19.4224C20.8632 3.06227 21.8378 3.94426 21.8378 5.02382C21.8378 6.10337 20.8632 6.98536 19.4224 6.98536H14.1183V4.96031C14.1183 4.86859 14.0406 4.79097 13.9418 4.79097H10.4881C10.3963 4.79097 10.3186 4.86859 10.3186 4.96031V17.0048C10.3186 17.0965 10.3963 17.1741 10.4881 17.1741H19.9521C23.4905 17.1741 26.019 15.523 26.019 12.1644C26.019 10.5133 25.0443 9.15153 23.3916 8.58M19.606 14.1895H14.1183V10.1605H19.606C21.0892 10.1605 22.085 11.0637 22.085 12.1715C22.085 13.2792 21.0821 14.1824 19.606 14.1824" fill="#D20A11"/>
<path d="M66.4458 16.9836L60.8733 9.8712C60.8733 9.8712 60.831 9.85709 60.8239 9.8712L59.3195 13.5332C59.3195 13.5332 59.3125 13.5826 59.3195 13.6038L61.7562 16.8636C61.9257 17.0965 62.1234 17.1811 62.413 17.1811H66.3399C66.4529 17.1811 66.4952 17.0753 66.4317 16.9836" fill="#D20A11"/>
<path d="M32.1211 4.79803H28.8723C28.7734 4.79803 28.7028 4.87565 28.7028 4.96738V17.0118C28.7028 17.1036 28.7805 17.1812 28.8723 17.1812H32.1211C32.2129 17.1812 32.2906 17.1036 32.2906 17.0118V4.96738C32.2906 4.87565 32.2129 4.79803 32.1211 4.79803Z" fill="#D20A11"/>
<path d="M45.4908 0H42.242C42.1431 0 42.0725 0.0776151 42.0725 0.169342V14.1118C41.3097 14.1118 40.9283 13.8014 40.6529 13.1593L36.2387 2.34256C35.5253 0.754983 34.2823 0 31.9304 0H28.8723C28.7734 0 28.6957 0.0776151 28.6957 0.169342V2.89293C28.6957 2.98465 28.7734 3.06227 28.8723 3.06227H31.3442C32.3683 3.06227 32.8768 3.3939 33.2229 4.14888L37.5877 14.8315C38.301 16.4262 39.3745 17.1812 41.7193 17.1812H45.3637C45.5332 17.1812 45.6674 17.0471 45.6674 16.8778V0.169342C45.6674 0.0705592 45.5897 0 45.4979 0" fill="#D20A11"/>
</g>
<defs>
<clipPath id="clip0_684_3693">
<rect width="73" height="40" fill="white"/>
</clipPath>
</defs>
</svg>
