<svg width="73" height="40" viewBox="0 0 73 40" fill="none" xmlns="http://www.w3.org/2000/svg">
<g clip-path="url(#clip0_684_3717)">
<path d="M61.0961 3.06932H62.5392C62.6308 3.06932 62.7082 2.99171 62.7082 2.89998V0.169342C62.7082 0.0705592 62.6378 0 62.5392 0H60.5119C58.1677 0 56.9287 0.754983 56.2177 2.34257L51.811 13.1522C51.5435 13.7943 51.1563 14.1048 50.396 14.1048V0.169342C50.396 0.0705592 50.3186 0 50.2271 0H46.9959C46.8974 0 46.827 0.0776151 46.827 0.169342V16.8707C46.827 17.033 46.9607 17.1741 47.1297 17.1741H50.7551C53.0992 17.1741 54.1692 16.4262 54.8732 14.8245L59.2166 4.14888C59.5686 3.3939 60.0684 3.06227 61.0891 3.06227" fill="#D20A11"/>
<path d="M21.548 8.58705C22.8433 8.04375 23.9203 6.83719 23.9203 4.81919C23.9274 1.82043 21.3579 0 18.2606 0H8.69382C8.60231 0 8.52487 0.0776151 8.52487 0.176398V2.89998C8.52487 2.99171 8.60231 3.06932 8.69382 3.06932H17.5988C19.0349 3.06932 20.0064 3.95132 20.0064 5.03087C20.0064 6.11043 19.0349 6.99242 17.5988 6.99242H12.3121V4.96737C12.3121 4.86858 12.2347 4.79803 12.1432 4.79803H8.70086C8.60935 4.79803 8.53191 4.87564 8.53191 4.96737V17.0048C8.53191 17.0965 8.60935 17.1741 8.70086 17.1741H18.1338C21.6536 17.1741 24.1808 15.523 24.1808 12.1644C24.1808 10.5133 23.2093 9.15153 21.5621 8.58M17.7819 14.1824H12.3121V10.1605H17.7819C19.2602 10.1605 20.2527 11.0637 20.2527 12.1715C20.2527 13.2792 19.2602 14.1824 17.7819 14.1824Z" fill="#D20A11"/>
<path d="M64.447 16.9836L58.8998 9.8712C58.8998 9.8712 58.8576 9.85709 58.8505 9.8712L57.3582 13.5332C57.3582 13.5332 57.3511 13.5826 57.3582 13.5967L59.7868 16.8566C59.9557 17.0894 60.1528 17.1741 60.4415 17.1741H64.3484C64.461 17.1741 64.5103 17.0612 64.4399 16.9765" fill="#D20A11"/>
<path d="M30.2489 4.79803H27.0107C26.9122 4.79803 26.8418 4.87565 26.8418 4.96738V17.0048C26.8418 17.1036 26.9122 17.1741 27.0107 17.1741H30.2489C30.3404 17.1741 30.4179 17.0965 30.4179 17.0048V4.96738C30.4179 4.86859 30.3404 4.79803 30.2489 4.79803Z" fill="#D20A11"/>
<path d="M43.5677 0H40.3295C40.231 0 40.1606 0.0776151 40.1606 0.176398V14.1118C39.4003 14.1118 39.0131 13.8014 38.7456 13.1593L34.3459 2.34962C33.642 0.747927 32.396 0 30.0588 0H27.0107C26.9122 0 26.8418 0.0776151 26.8418 0.176398V2.89998C26.8418 2.99171 26.9192 3.06932 27.0107 3.06932H29.4746C30.4953 3.06932 30.9951 3.40095 31.3471 4.15594L35.6905 14.8315C36.4015 16.4262 37.4644 17.1812 39.8086 17.1812H43.434C43.6029 17.1812 43.7367 17.0471 43.7367 16.8778V0.176398C43.7367 0.0776151 43.6592 0 43.5677 0Z" fill="#D20A11"/>
<path d="M14.3043 29.2821C14.593 28.7247 14.7619 27.8356 14.7971 26.8831V22.4449H2.62575V24.4135H12.1362V26.8831C12.1362 27.5251 12.0517 28.7952 11.932 29.2891H0V31.2577H17.6129V29.2891H14.3043V29.2821ZM3.04812 37.8409C3.04812 38.3278 3.19595 38.7793 3.55497 39.1039C3.91398 39.4355 4.47715 39.626 5.27965 39.626H12.636C13.4385 39.626 13.9946 39.4285 14.3607 39.1039C14.7197 38.7793 14.8675 38.3207 14.8675 37.8409V32.9794H3.04812V37.8409ZM5.74426 34.8986H12.1573V37.3329C12.1573 37.5163 11.9954 37.6716 11.7983 37.6716H6.11032C5.91321 37.6716 5.7513 37.5163 5.7513 37.3329V34.8986H5.74426Z" fill="#716353"/>
<path d="M51.9588 22.8047H39.7875V24.858H49.2134V31.3918C49.2134 32.1468 49.1008 33.692 48.9107 34.6375H37.1617V36.6908H54.7746V34.6375H51.3041C51.8251 33.5439 51.9588 31.9069 51.9588 30.284V22.8118V22.8047Z" fill="#716353"/>
<path d="M24.2723 28.0614C25.1945 28.7529 26.4687 29.1833 27.8695 29.1833C29.2704 29.1833 30.5445 28.7529 31.4738 28.0614C32.3959 27.3629 32.9732 26.3962 32.9732 25.3237C32.9732 24.2512 32.3959 23.2845 31.4738 22.586C30.5445 21.8945 29.2774 21.4641 27.8695 21.4641C26.4616 21.4641 25.1945 21.8945 24.2723 22.586C23.3501 23.2845 22.7659 24.2512 22.7729 25.3237C22.7729 26.3962 23.3501 27.3629 24.2723 28.0614ZM26.0885 23.9266C26.5461 23.5668 27.1726 23.341 27.8695 23.341C28.5664 23.341 29.193 23.5668 29.6435 23.9266C30.1011 24.2935 30.3756 24.7804 30.3756 25.3308C30.3756 25.8811 30.1011 26.368 29.6435 26.7278C29.193 27.0877 28.5664 27.3135 27.8695 27.3135C27.1726 27.3135 26.5461 27.0877 26.0885 26.7278C25.638 26.368 25.3634 25.8741 25.3634 25.3308C25.3634 24.7875 25.638 24.2935 26.0885 23.9266ZM36.5704 31.7799V29.8113H19.1687V31.7799H23.8148V34.1577C23.2164 34.7504 22.8715 35.4913 22.8715 36.3027C22.8715 37.3329 23.4346 38.2572 24.3427 38.9275C25.2438 39.5908 26.4968 40.0071 27.8695 40.0071C29.2422 40.0071 30.4953 39.5978 31.4034 38.9275C32.3115 38.2643 32.8746 37.3329 32.8746 36.3027C32.8746 35.4913 32.5227 34.7504 31.9313 34.1577V31.7799H36.5704ZM26.4546 31.7799H29.2845V32.7959C28.8339 32.6971 28.3623 32.6477 27.8695 32.6477C27.3768 32.6477 26.9051 32.6971 26.4546 32.7959V31.7728V31.7799ZM29.5731 37.6433C29.1366 38.0032 28.5383 38.2219 27.8695 38.2219C27.2008 38.2219 26.6024 38.0032 26.166 37.6433C25.7295 37.2905 25.462 36.8037 25.462 36.2604C25.462 35.7171 25.7295 35.2302 26.166 34.8774C26.5954 34.5176 27.2008 34.2988 27.8695 34.2988C28.5383 34.2988 29.1437 34.5176 29.5731 34.8774C30.0095 35.2373 30.277 35.7241 30.277 36.2604C30.277 36.7966 30.0095 37.2835 29.5731 37.6433Z" fill="#716353"/>
<path d="M73 30.7779H55.7672V32.5419H63.0602V34.1577H65.707V32.5419H73V30.7779Z" fill="#716353"/>
<path d="M68.0371 39.6261C68.8396 39.6261 69.4028 39.4285 69.7618 39.1039C70.1208 38.7723 70.2687 38.3207 70.2687 37.8339V33.6426H67.7626V34.7363H60.9905V33.6426H58.4845V37.8339C58.4845 38.3207 58.6323 38.7723 58.9913 39.1039C59.3503 39.4285 59.9135 39.6261 60.716 39.6261H68.0301H68.0371ZM61.3777 37.8127C61.1806 37.8127 61.0187 37.6575 61.0187 37.474V36.4297H67.7555V37.474C67.7555 37.6575 67.5936 37.8127 67.3965 37.8127H61.3777Z" fill="#716353"/>
<path d="M61.6311 28.0826C61.427 28.0826 61.2651 27.9273 61.2651 27.7368V27.003H70.0504V22.4449H58.4986V24.1877H67.305V25.2602H58.4986V28.1461C58.4986 28.64 58.6464 29.1057 59.0195 29.4373C59.3855 29.7689 59.9628 29.9736 60.7723 29.9736H70.2757V28.0896H61.6311V28.0826Z" fill="#716353"/>
</g>
<defs>
<clipPath id="clip0_684_3717">
<rect width="73" height="40" fill="white"/>
</clipPath>
</defs>
</svg>
