<svg width="69" height="19" viewBox="0 0 69 19" fill="none" xmlns="http://www.w3.org/2000/svg">
<path d="M8.03906 13.8867H8.20312L12.3398 0.949219H16.2539L10.3828 17.918H5.85938L0 0.949219H3.90234L8.03906 13.8867ZM18.0938 5.19141H21.5625V17.918H18.0938V5.19141ZM19.8281 3.51562C19.4844 3.51562 19.168 3.4375 18.8789 3.28125C18.5898 3.125 18.3594 2.91016 18.1875 2.63672C18.0156 2.36328 17.9297 2.07031 17.9297 1.75781C17.9297 1.4375 18.0156 1.14453 18.1875 0.878906C18.3594 0.605469 18.5898 0.390625 18.8789 0.234375C19.168 0.078125 19.4844 0 19.8281 0C20.1719 0 20.4883 0.078125 20.7773 0.234375C21.0664 0.390625 21.293 0.605469 21.457 0.878906C21.6289 1.14453 21.7148 1.4375 21.7148 1.75781C21.7148 2.07031 21.6289 2.36328 21.457 2.63672C21.293 2.91016 21.0664 3.125 20.7773 3.28125C20.4883 3.4375 20.1719 3.51562 19.8281 3.51562ZM31.5234 8.97656C31.4453 8.50781 31.2227 8.14453 30.8555 7.88672C30.4883 7.62891 30.0156 7.5 29.4375 7.5C29.0625 7.5 28.7266 7.55469 28.4297 7.66406C28.1328 7.76562 27.8945 7.91797 27.7148 8.12109C27.543 8.31641 27.457 8.53906 27.457 8.78906C27.4492 9.08594 27.5742 9.34375 27.832 9.5625C28.0977 9.78125 28.5195 9.94922 29.0977 10.0664L31.3945 10.5352C32.6289 10.7852 33.5469 11.1953 34.1484 11.7656C34.7578 12.3281 35.0625 13.0664 35.0625 13.9805C35.0625 14.8086 34.8242 15.5391 34.3477 16.1719C33.8789 16.7969 33.2188 17.2852 32.3672 17.6367C31.5234 17.9883 30.5391 18.1641 29.4141 18.1641C28.2812 18.1641 27.3008 18.0039 26.4727 17.6836C25.6523 17.3555 25.0039 16.8945 24.5273 16.3008C24.0508 15.6992 23.7656 14.9844 23.6719 14.1562H27.1523C27.2539 14.6406 27.4961 15.0117 27.8789 15.2695C28.2695 15.5195 28.7852 15.6445 29.4258 15.6445C29.8398 15.6445 30.2031 15.5938 30.5156 15.4922C30.8359 15.3906 31.082 15.2422 31.2539 15.0469C31.4336 14.8438 31.5234 14.6094 31.5234 14.3438C31.5234 14 31.3828 13.7227 31.1016 13.5117C30.8281 13.3008 30.3945 13.1367 29.8008 13.0195L27.6914 12.5977C26.4727 12.3555 25.5508 11.9297 24.9258 11.3203C24.3086 10.7109 24.0039 9.9375 24.0117 9C24.0117 8.1875 24.2305 7.48438 24.668 6.89062C25.1055 6.28906 25.7266 5.82812 26.5312 5.50781C27.3438 5.1875 28.2969 5.02734 29.3906 5.02734C30.4531 5.02734 31.3789 5.1875 32.168 5.50781C32.957 5.82812 33.5742 6.28516 34.0195 6.87891C34.4648 7.47266 34.7148 8.17188 34.7695 8.97656H31.5234ZM45.3633 5.19141H48.8086V17.918H45.4922V15.6211H45.3516C45.0469 16.3789 44.5625 16.9805 43.8984 17.4258C43.2344 17.8633 42.4336 18.082 41.4961 18.082C40.6523 18.082 39.9062 17.8906 39.2578 17.5078C38.6094 17.1172 38.1016 16.5625 37.7344 15.8438C37.375 15.1172 37.1953 14.2656 37.1953 13.2891V5.19141H40.6641V12.6914C40.6641 13.1836 40.7539 13.6172 40.9336 13.9922C41.1133 14.3594 41.3711 14.6445 41.707 14.8477C42.0508 15.043 42.4414 15.1406 42.8789 15.1406C43.3242 15.1406 43.7344 15.0391 44.1094 14.8359C44.4922 14.6328 44.7969 14.3281 45.0234 13.9219C45.25 13.5156 45.3633 13.0391 45.3633 12.4922V5.19141ZM58.9805 12.4219C58.668 12.4297 58.1172 12.4609 57.3281 12.5156L56.2031 12.6094C55.5859 12.6562 55.1016 12.8242 54.75 13.1133C54.3984 13.3945 54.2227 13.7773 54.2227 14.2617C54.2227 14.5742 54.3008 14.8398 54.457 15.0586C54.6211 15.2773 54.8477 15.4453 55.1367 15.5625C55.4336 15.6797 55.7656 15.7383 56.1328 15.7383C56.6562 15.7383 57.1211 15.6367 57.5273 15.4336C57.9336 15.2227 58.25 14.9375 58.4766 14.5781C58.7031 14.2109 58.8164 13.8086 58.8164 13.3711L58.793 9.25781C58.793 8.89844 58.7148 8.59375 58.5586 8.34375C58.4102 8.08594 58.1797 7.89453 57.8672 7.76953C57.5625 7.63672 57.1992 7.57031 56.7773 7.57031C56.1914 7.57031 55.7148 7.69531 55.3477 7.94531C54.9805 8.1875 54.75 8.53125 54.6562 8.97656H51.3516C51.4297 8.22656 51.6914 7.55469 52.1367 6.96094C52.5898 6.35938 53.2148 5.88672 54.0117 5.54297C54.8164 5.19922 55.7656 5.02734 56.8594 5.02734C57.8438 5.02734 58.7422 5.17969 59.5547 5.48438C60.3672 5.78906 61.0195 6.26562 61.5117 6.91406C62.0117 7.55469 62.2617 8.36328 62.2617 9.33984V17.918H58.9688V16.1602H58.875C58.6641 16.5586 58.3867 16.9062 58.043 17.2031C57.6992 17.5 57.2852 17.7344 56.8008 17.9062C56.3242 18.0703 55.7695 18.1523 55.1367 18.1523C54.3164 18.1523 53.5898 18.0078 52.957 17.7188C52.3242 17.4297 51.8242 17 51.457 16.4297C51.0898 15.8594 50.9062 15.1719 50.9062 14.3672C50.9062 13.0391 51.3438 12.0742 52.2188 11.4727C53.1016 10.8711 54.2422 10.5273 55.6406 10.4414C55.875 10.418 56.5977 10.3789 57.8086 10.3242L58.957 10.2773L58.9805 12.4219ZM68.3672 17.918H64.8984V0.949219H68.3672V17.918Z" fill="#2F77FF"/>
</svg>
