<svg width="24" height="24" viewBox="0 0 24 24" fill="none" xmlns="http://www.w3.org/2000/svg">
<circle cx="12" cy="12" r="11" fill="#00AD5C"/>
<path d="M7.26343 11.8882C7.26343 12.1053 7.33895 12.2917 7.48999 12.4475C7.64575 12.5986 7.83219 12.6741 8.04932 12.6741H11.2141V15.8459C11.2141 16.0583 11.292 16.2424 11.4478 16.3982C11.6035 16.554 11.7876 16.6318 12 16.6318C12.2171 16.6318 12.4012 16.554 12.5522 16.3982C12.7033 16.2424 12.7788 16.0583 12.7788 15.8459V12.6741H15.9578C16.1702 12.6741 16.3519 12.5986 16.5029 12.4475C16.6587 12.2917 16.7366 12.1053 16.7366 11.8882C16.7366 11.6758 16.6587 11.4941 16.5029 11.343C16.3519 11.1873 16.1702 11.1094 15.9578 11.1094H12.7788V7.9375C12.7788 7.7251 12.7033 7.54102 12.5522 7.38525C12.4012 7.22949 12.2171 7.15161 12 7.15161C11.7876 7.15161 11.6035 7.22949 11.4478 7.38525C11.292 7.54102 11.2141 7.7251 11.2141 7.9375V11.1094H8.04932C7.83219 11.1094 7.64575 11.1873 7.48999 11.343C7.33895 11.4941 7.26343 11.6758 7.26343 11.8882Z" fill="white"/>
</svg>
